{
.appVersion = "3228";
.formatVersion = 3;
DisplayStrings = (
"0123456789
oo1oo2oo3oo4oo
oo5oo6oo7oo8oo
oo9oo0oo

hh0hh1hh2hh3hh
hh4hh5hh6hh7hh
hh8hh9hh

09876543210123456789
234567876543212345678
90987654321234567890

breAd And butter",
"ooaooboocoodoo
ooeoofoogoohoo
ooioojookooloo
oomoonoopooqoo
ooroosootoouoo
oouoovoowooxoo
ooyoozoo

OOAOOBOOCOODOOEOOFOO
OOGOOHOOIOOJOOKOOLOO
OOMOONOOOOOPOOQOOROO
OOSOOTOOUOOVOOWOOXOO
OOYOOZOO
0H155

HHAHHBHHCHHDHHEHHFHH
HHGHHIHHJHHKHHLHHMHHNHHOHHPHHQHHRHHSHHTHHUHH
HHVHHWHHXHHYHHZHH

Jinxed wizards pluck ivy from the big quilt of Czar Pygmies.

ThE qUicK BrOWn JumPs oVeR tHe LaZy dOg, fLiPpInG bAcKwArDs.xs

051456789
0123456789












",
"hhahhbhhchh
hhdhhehhfhh
hhghhhhhihh
hhjhhkhhlhh
hhmhhnhhohh
hhphhqhhrhh
hhshhthhshh
hhthhuhhvhh
hhvhhwhhxhh
hhyhhzhh
",
"hhHHhhBBhhCChhDDhh
hhEEhhFhhGhhIhhJhh
hhKhhLhhMhhNhhOhh
hhOhhPhhQhhRhhShh
hhThhUhhVhhWhhXhh
hhYhhZhh
ooAooBooCooDooEooFooGoo
ooIooJooKooLooMooNooOOoo
ooPooQooRooSooTooUooVoo
ooWooXooYooZoo
BoOLean

OOAOOoo",
"Aebraham Brunetti Detroit Evanson Fairburn Genovese Hanraets Isbister Merritt Nussbaum Osbourne Robinson Stroman Travieso Varnham Antonino Beaumont Ethanson Fontana Germano Herriot Ingesson Montana Neumann Overton Ruggeri Steensen Thomson Vonnegut Abraham Brunetti Evanson Fairburn Genovese Hanraets Isbister Merritt Nussbaum Osbourne Robinson Stroman Travieso Varnham Antonino Beaumont Ethanson Fontana Germano Herriot Ingesson Montana Neumann Overton Ruggeri Steensen Thomson Vonnegut 


Abraham Brunetti Detroit Evanson Fairburn Genovese Hanraets Isbister Merritt Nussbaum Osbourne Robinson Stroman Travieso Varnham Antonino Beaumont Ethanson Fontana Germano Herriot Ingesson Montana Neumann Overton Ruggeri Steensen Thomson Vonnegut Abraham Brunetti Evanson Fairburn Genovese Hanraets Isbister Merritt Nussbaum Osbourne Robinson Stroman Travieso Varnham Antonino Beaumont Ethanson Fontana Germano Herriot Ingesson Montana Neumann Overton Ruggeri Steensen Thomson Vonnegut



glyphs = (
{
glyphname = A;
lastChange = "2024-01-12 07:07:25 +0000";
layers = (
{
layerId = m01;
shapes = (
{
closed = 1;
nodes = (
(70,34,o),
(155,97,o),
(161,125,cs),
(197,289,o),
(241,452,o),
(276,615,cs),
(283,649,o),
(174,547,o),
(168,521,cs),
(135,369,o),
(110,217,o),
(77,65,cs)
);
},
{
closed = 1;
nodes = (
(25,145,o),
(-32,-25,o),
(-1,3,cs),
(19,21,o),
(53,30,o),
(85,28,cs),
(109,27,o),
(132,18,o),
(144,1,cs),
(158,-19,o),
(221,151,o),
(208,169,cs),
(194,188,o),
(169,198,o),
(141,199,cs),
(109,200,o),
(74,189,o),
(49,167,cs)
);
},
{
closed = 1;
nodes = (
(81,407,o),
(24,237,o),
(34,237,cs),
(63,237,o),
(92,237,o),
(121,237,c),
(124,236,o),
(132,244,o),
(136,243,c),
(193,243,o),
(249,242,o),
(305,242,c),
(313,244,o),
(322,237,o),
(330,238,c),
(365,238,o),
(401,238,o),
(437,238,cs),
(449,238,o),
(509,408,o),
(497,408,cs),
(462,408,o),
(426,408,o),
(390,408,c),
(379,405,o),
(370,394,o),
(359,392,c),
(305,391,o),
(251,390,o),
(198,389,c),
(191,392,o),
(189,404,o),
(181,407,c),
(152,407,o),
(123,407,o),
(94,407,cs)
);
},
{
closed = 1;
nodes = (
(386,719,o),
(244,615,o),
(276,615,cs),
(295,615,o),
(279,215,o),
(284,62,cs),
(286,6,o),
(307,-9,o),
(351,4,cs),
(386,14,o),
(507,143,o),
(467,132,cs),
(435,123,o),
(415,132,o),
(414,184,cs),
(409,327,o),
(448,719,o),
(412,719,cs)
);
},
{
closed = 1;
nodes = (
(231,595,o),
(227,503,o),
(237,511,cs),
(266,534,o),
(295,557,o),
(324,580,cs),
(333,587,o),
(339,681,o),
(328,672,cs),
(299,649,o),
(270,626,o),
(241,603,cs)
);
}
);
width = 534;
}
);
unicode = 65;
},
{
glyphname = B;
lastChange = "2024-01-12 07:07:25 +0000";
layers = (
{
layerId = m01;
shapes = (
{
closed = 1;
nodes = (
(291,-3,o),
(414,143,o),
(391,147,cs),
(171,188,o),
(81,195,o),
(42,168,cs),
(19,152,o),
(-40,-19,o),
(-12,0,cs),
(-5,5,o),
(73,38,o),
(271,1,cs)
);
},
{
closed = 1;
nodes = (
(172,636,o),
(81,569,o),
(74,529,cs),
(56,425,o),
(29,118,o),
(27,106,cs),
(23,66,o),
(111,135,o),
(115,172,cs),
(115,172,o),
(148,501,o),
(164,591,cs)
);
},
{
closed = 1;
nodes = (
(187,256,o),
(250,244,o),
(316,326,cs),
(470,515,o),
(446,625,o),
(366,678,cs),
(302,719,o),
(204,725,o),
(129,705,cs),
(106,699,o),
(14,543,o),
(43,551,cs),
(147,578,o),
(229,564,o),
(272,525,cs),
(316,484,o),
(317,416,o),
(254,338,cs)
);
},
{
closed = 1;
nodes = (
(107,484,o),
(45,315,o),
(64,309,cs),
(193,269,o),
(264,240,o),
(302,217,cs),
(360,181,o),
(337,159,o),
(315,132,cs),
(238,40,o),
(280,-5,o),
(361,92,cs),
(481,235,o),
(487,311,o),
(430,362,cs),
(374,412,o),
(256,438,o),
(126,479,cs)
);
}
);
width = 505;
}
);
unicode = 66;
},
{
glyphname = C;
lastChange = "2024-01-12 07:07:25 +0000";
layers = (
{
guides = (
{
pos = (693,541);
}
);
layerId = m01;
shapes = (
{
closed = 1;
nodes = (
(415,662,o),
(285,596,o),
(234,543,cs),
(182,489,o),
(141,438,o),
(109,391,cs),
(25,268,o),
(8,172,o),
(28,104,cs),
(66,-27,o),
(242,-52,o),
(333,35,cs),
(366,66,o),
(442,249,o),
(405,213,cs),
(328,141,o),
(203,138,o),
(169,219,cs),
(152,259,o),
(157,320,o),
(203,402,cs),
(235,460,o),
(286,528,o),
(362,607,cs)
);
},
{
closed = 1;
nodes = (
(414,593,o),
(467,761,o),
(435,727,cs),
(411,703,o),
(291,694,o),
(251,732,cs),
(235,747,o),
(171,579,o),
(187,564,cs),
(229,525,o),
(351,528,o),
(387,565,cs)
);
}
);
width = 474;
}
);
unicode = 67;
},
{
glyphname = D;
lastChange = "2024-01-12 07:07:25 +0000";
layers = (
{
layerId = m01;
shapes = (
{
closed = 1;
nodes = (
(96,725,o),
(32,554,o),
(50,545,cs),
(193,480,o),
(276,407,o),
(318,336,cs),
(370,250,o),
(361,169,o),
(328,115,cs),
(286,46,o),
(342,39,o),
(386,111,cs),
(469,246,o),
(471,372,o),
(408,481,cs),
(354,573,o),
(253,653,o),
(114,717,cs)
);
},
{
closed = 1;
nodes = (
(45,48,o),
(125,43,o),
(128,95,cs),
(139,309,o),
(170,614,o),
(150,641,cs),
(119,680,o),
(53,634,o),
(86,591,cs),
(87,591,o),
(61,358,o),
(48,99,cs)
);
},
{
closed = 1;
nodes = (
(304,-4,o),
(423,146,o),
(383,150,cs),
(160,174,o),
(110,202,o),
(65,167,cs),
(41,148,o),
(-16,-22,o),
(13,1,cs),
(26,12,o),
(64,22,o),
(271,0,cs)
);
}
);
width = 512;
}
);
unicode = 68;
},
{
glyphname = E;
lastChange = "2024-01-12 07:07:25 +0000";
layers = (
{
layerId = m01;
shapes = (
{
closed = 1;
nodes = (
(180,664,o),
(96,602,o),
(93,575,cs),
(74,390,o),
(57,200,o),
(39,29,cs),
(34,-15,o),
(55,0,o),
(63,6,cs),
(90,30,o),
(121,35,o),
(170,19,cs),
(238,-2,o),
(329,-18,o),
(379,25,cs),
(402,44,o),
(448,218,o),
(421,195,cs),
(385,166,o),
(294,169,o),
(232,189,cs),
(181,205,o),
(154,206,o),
(99,160,c),
(107,152,o),
(115,144,o),
(123,137,c),
(141,314,o),
(160,472,o),
(177,635,cs)
);
},
{
closed = 1;
nodes = (
(68,438,o),
(8,268,o),
(29,268,cs),
(137,269,o),
(245,269,o),
(352,269,cs),
(372,269,o),
(434,439,o),
(412,439,cs),
(304,438,o),
(196,438,o),
(89,438,cs)
);
},
{
closed = 1;
nodes = (
(440,549,o),
(487,723,o),
(460,703,cs),
(435,685,o),
(356,695,o),
(277,701,cs),
(205,707,o),
(132,709,o),
(98,681,cs),
(75,662,o),
(31,491,o),
(56,511,cs),
(92,540,o),
(182,530,o),
(265,523,cs),
(331,518,o),
(393,514,o),
(418,533,cs)
);
}
);
width = 498;
}
);
unicode = 69;
},
{
glyphname = F;
lastChange = "2024-01-12 07:07:25 +0000";
layers = (
{
layerId = m01;
shapes = (
{
closed = 1;
nodes = (
(183,673,o),
(101,602,o),
(98,574,cs),
(81,405,o),
(65,236,o),
(48,68,cs),
(45,36,o),
(127,110,o),
(130,136,cs),
(147,305,o),
(163,474,o),
(180,642,cs)
);
},
{
closed = 1;
nodes = (
(440,561,o),
(483,733,o),
(454,705,cs),
(436,688,o),
(359,691,o),
(282,695,cs),
(210,698,o),
(139,702,o),
(114,690,cs),
(91,678,o),
(37,508,o),
(62,520,cs),
(88,534,o),
(181,523,o),
(265,519,cs),
(332,516,o),
(393,517,o),
(414,537,cs)
);
},
{
closed = 1;
nodes = (
(367,285,o),
(415,459,o),
(389,444,cs),
(370,433,o),
(299,437,o),
(229,440,cs),
(167,442,o),
(107,443,o),
(86,431,cs),
(63,418,o),
(18,245,o),
(42,259,cs),
(64,272,o),
(145,267,o),
(219,264,cs),
(275,262,o),
(327,262,o),
(345,272,cs)
);
},
{
closed = 1;
nodes = (
(24,143,o),
(-32,-27,o),
(-1,2,cs),
(19,20,o),
(55,30,o),
(88,27,cs),
(111,25,o),
(132,16,o),
(144,0,cs),
(159,-19,o),
(221,150,o),
(208,168,cs),
(194,185,o),
(171,195,o),
(145,197,cs),
(112,200,o),
(74,189,o),
(49,166,cs)
);
}
);
width = 434;
}
);
unicode = 70;
},
{
glyphname = G;
lastChange = "2024-01-12 07:07:25 +0000";
layers = (
{
layerId = m01;
shapes = (
{
closed = 1;
nodes = (
(422,660,o),
(329,642,o),
(280,599,cs),
(90,431,o),
(9,282,o),
(5,169,cs),
(2,101,o),
(27,47,o),
(72,9,cs),
(110,-22,o),
(169,-16,o),
(183,-16,cs),
(192,-16,o),
(371,140,o),
(403,186,cs),
(423,217,o),
(414,266,o),
(391,234,cs),
(375,209,o),
(263,116,o),
(263,116,cs),
(259,116,o),
(225,115,o),
(198,137,cs),
(155,173,o),
(133,220,o),
(138,278,cs),
(146,366,o),
(217,479,o),
(372,615,cs)
);
},
{
closed = 1;
nodes = (
(247,351,o),
(159,219,o),
(220,267,cs),
(241,284,o),
(317,289,o),
(312,200,cs),
(309,135,o),
(300,72,o),
(293,6,cs),
(287,-58,o),
(299,-105,o),
(334,-100,cs),
(361,-97,o),
(487,33,o),
(454,28,cs),
(431,25,o),
(428,50,o),
(435,114,cs),
(441,178,o),
(450,244,o),
(454,308,cs),
(455,347,o),
(435,382,o),
(406,400,cs),
(375,419,o),
(334,421,o),
(296,391,cs)
);
},
{
closed = 1;
nodes = (
(397,593,o),
(450,761,o),
(418,727,cs),
(405,714,o),
(363,705,o),
(321,706,cs),
(286,707,o),
(252,715,o),
(234,732,cs),
(218,747,o),
(154,579,o),
(170,564,cs),
(188,548,o),
(220,539,o),
(254,536,cs),
(300,534,o),
(349,543,o),
(370,565,cs)
);
}
);
width = 525;
}
);
unicode = 71;
},
{
glyphname = H;
lastChange = "2024-01-12 07:07:25 +0000";
layers = (
{
guides = (
{
pos = (103,-2);
},
{
pos = (204,711);
},
{
pos = (1015,217);
}
);
layerId = m01;
shapes = (
{
closed = 1;
nodes = (
(84,438,o),
(23,268,o),
(44,268,cs),
(188,269,o),
(333,269,o),
(477,269,cs),
(496,269,o),
(558,439,o),
(537,439,cs),
(393,438,o),
(248,438,o),
(104,438,cs)
);
},
{
closed = 1;
nodes = (
(168,702,o),
(38,571,o),
(77,580,cs),
(86,583,o),
(97,564,o),
(92,488,cs),
(82,361,o),
(72,234,o),
(63,106,cs),
(57,39,o),
(81,-4,o),
(104,0,cs),
(134,5,o),
(261,138,o),
(226,132,cs),
(191,126,o),
(203,155,o),
(207,218,cs),
(217,345,o),
(227,472,o),
(236,600,cs),
(241,660,o),
(230,717,o),
(199,710,cs)
);
},
{
closed = 1;
nodes = (
(437,702,o),
(307,571,o),
(346,580,cs),
(355,583,o),
(366,564,o),
(361,488,cs),
(351,361,o),
(341,234,o),
(332,106,cs),
(326,39,o),
(350,-4,o),
(373,0,cs),
(403,5,o),
(530,138,o),
(495,132,cs),
(460,126,o),
(472,155,o),
(476,218,cs),
(486,345,o),
(496,472,o),
(505,600,cs),
(510,660,o),
(499,717,o),
(468,710,cs)
);
}
);
width = 581;
}
);
unicode = 72;
},
{
glyphname = I;
lastChange = "2024-01-12 07:07:25 +0000";
layers = (
{
layerId = m01;
shapes = (
{
closed = 1;
nodes = (
(156,702,o),
(26,571,o),
(65,580,cs),
(74,583,o),
(85,565,o),
(80,488,cs),
(70,361,o),
(60,234,o),
(51,106,cs),
(45,39,o),
(69,-4,o),
(92,0,cs),
(122,5,o),
(249,138,o),
(214,132,cs),
(179,126,o),
(191,155,o),
(195,218,cs),
(205,345,o),
(215,472,o),
(224,600,cs),
(229,661,o),
(218,717,o),
(187,710,cs)
);
}
);
width = 275;
}
);
unicode = 73;
},
{
glyphname = J;
lastChange = "2024-01-12 07:07:25 +0000";
layers = (
{
layerId = m01;
shapes = (
{
closed = 1;
nodes = (
(103,-23,o),
(215,118,o),
(211,141,cs),
(206,163,o),
(185,196,o),
(158,219,cs),
(134,241,o),
(106,255,o),
(82,247,cs),
(54,237,o),
(-54,93,o),
(-18,105,cs),
(-2,111,o),
(22,99,o),
(44,79,cs),
(70,57,o),
(93,25,o),
(97,3,cs)
);
},
{
closed = 1;
nodes = (
(322,702,o),
(192,571,o),
(231,580,cs),
(240,583,o),
(253,563,o),
(246,488,cs),
(236,399,o),
(226,309,o),
(217,219,cs),
(203,96,o),
(201,120,o),
(199,119,cs),
(128,64,o),
(56,-40,o),
(135,21,cs),
(356,193,o),
(356,281,o),
(361,331,cs),
(371,420,o),
(381,510,o),
(390,600,cs),
(397,661,o),
(384,717,o),
(353,710,cs)
);
}
);
width = 427;
}
);
unicode = 74;
},
{
glyphname = K;
lastChange = "2024-01-12 07:07:25 +0000";
layers = (
{
layerId = m01;
shapes = (
{
closed = 1;
nodes = (
(294,459,o),
(174,324,o),
(192,314,cs),
(203,308,o),
(233,218,o),
(275,135,cs),
(309,67,o),
(351,5,o),
(394,0,cs),
(416,-2,o),
(533,135,o),
(508,138,cs),
(468,142,o),
(427,206,o),
(393,276,cs),
(353,356,o),
(322,443,o),
(310,450,cs)
);
},
{
closed = 1;
nodes = (
(134,696,o),
(10,562,o),
(54,579,cs),
(64,583,o),
(71,566,o),
(66,496,cs),
(56,370,o),
(46,244,o),
(37,118,cs),
(32,54,o),
(32,0,o),
(77,0,cs),
(103,0,o),
(234,152,o),
(201,152,cs),
(178,152,o),
(177,165,o),
(181,230,cs),
(191,356,o),
(201,482,o),
(210,608,cs),
(215,663,o),
(208,723,o),
(170,709,cs)
);
},
{
closed = 1;
nodes = (
(502,572,o),
(556,740,o),
(525,711,cs),
(507,694,o),
(476,685,o),
(446,685,cs),
(420,686,o),
(394,694,o),
(380,713,cs),
(366,731,o),
(301,564,o),
(316,545,cs),
(329,528,o),
(351,519,o),
(376,516,cs),
(410,512,o),
(449,523,o),
(475,547,cs)
);
},
{
closed = 1;
nodes = (
(509,609,o),
(402,615,o),
(385,596,cs),
(363,570,o),
(72,259,o),
(64,251,cs),
(45,230,o),
(153,226,o),
(170,243,cs),
(178,252,o),
(468,563,o),
(491,588,cs)
);
}
);
width = 564;
}
);
unicode = 75;
},
{
glyphname = L;
lastChange = "2024-01-12 07:07:25 +0000";
layers = (
{
layerId = m01;
shapes = (
{
closed = 1;
nodes = (
(48,92,o),
(-3,-43,o),
(43,11,cs),
(70,42,o),
(122,59,o),
(169,37,cs),
(210,16,o),
(273,-19,o),
(325,18,cs),
(350,36,o),
(407,206,o),
(377,184,cs),
(337,155,o),
(304,170,o),
(263,189,cs),
(208,217,o),
(150,210,o),
(87,137,cs)
);
},
{
closed = 1;
nodes = (
(147,703,o),
(20,575,o),
(57,583,cs),
(77,587,o),
(71,561,o),
(65,490,cs),
(52,334,o),
(41,177,o),
(27,21,cs),
(24,-16,o),
(164,122,o),
(167,155,cs),
(179,303,o),
(194,450,o),
(207,598,cs),
(211,649,o),
(217,717,o),
(177,709,cs)
);
}
);
width = 426;
}
);
unicode = 76;
},
{
glyphname = M;
lastChange = "2024-01-12 07:07:25 +0000";
layers = (
{
layerId = m01;
shapes = (
{
closed = 1;
nodes = (
(254,730,o),
(126,605,o),
(137,587,cs),
(208,475,o),
(239,49,o),
(294,-2,cs),
(308,-15,o),
(435,111,o),
(420,124,cs),
(369,171,o),
(336,599,o),
(265,713,cs)
);
},
{
closed = 1;
nodes = (
(19,62,o),
(119,114,o),
(127,138,cs),
(206,371,o),
(209,655,o),
(209,657,cs),
(211,683,o),
(128,605,o),
(127,583,cs),
(126,572,o),
(109,329,o),
(29,92,cs)
);
},
{
closed = 1;
nodes = (
(287,128,o),
(388,164,o),
(396,186,cs),
(484,407,o),
(534,620,o),
(536,640,cs),
(541,673,o),
(456,614,o),
(452,584,cs),
(450,574,o),
(382,367,o),
(298,154,cs)
);
},
{
closed = 1;
nodes = (
(588,737,o),
(459,613,o),
(459,585,cs),
(462,524,o),
(461,356,o),
(472,216,cs),
(482,99,o),
(499,1,o),
(533,-1,cs),
(556,-2,o),
(679,123,o),
(651,125,cs),
(620,127,o),
(606,234,o),
(598,359,cs),
(590,492,o),
(591,645,o),
(589,707,cs)
);
},
{
closed = 1;
nodes = (
(-1,143,o),
(-57,-27,o),
(-26,2,cs),
(-8,19,o),
(26,28,o),
(57,27,cs),
(84,27,o),
(110,18,o),
(123,0,cs),
(138,-19,o),
(200,150,o),
(187,168,cs),
(173,186,o),
(147,196,o),
(119,198,cs),
(85,199,o),
(47,188,o),
(24,166,cs)
);
}
);
width = 715;
}
);
unicode = 77;
},
{
glyphname = N;
lastChange = "2024-01-12 07:07:25 +0000";
layers = (
{
layerId = m01;
shapes = (
{
closed = 1;
nodes = (
(175,728,o),
(54,609,o),
(64,591,cs),
(110,508,o),
(158,392,o),
(208,280,cs),
(257,170,o),
(307,65,o),
(358,2,cs),
(370,-13,o),
(491,107,o),
(478,122,cs),
(428,184,o),
(377,290,o),
(328,401,cs),
(279,512,o),
(231,628,o),
(186,709,cs)
);
},
{
closed = 1;
nodes = (
(-11,145,o),
(-67,-25,o),
(-36,4,cs),
(-18,21,o),
(13,30,o),
(43,30,cs),
(69,29,o),
(95,21,o),
(109,2,cs),
(124,-17,o),
(186,152,o),
(173,170,cs),
(157,190,o),
(130,200,o),
(101,200,cs),
(70,200,o),
(37,189,o),
(14,168,cs)
);
},
{
closed = 1;
nodes = (
(530,570,o),
(584,738,o),
(553,709,cs),
(533,690,o),
(496,681,o),
(463,684,cs),
(441,687,o),
(420,695,o),
(408,711,cs),
(394,729,o),
(329,562,o),
(344,543,cs),
(363,519,o),
(399,510,o),
(435,515,cs),
(460,518,o),
(485,528,o),
(503,545,cs)
);
},
{
closed = 1;
nodes = (
(23,4,o),
(113,62,o),
(122,107,cs),
(126,131,o),
(136,223,o),
(145,324,cs),
(159,471,o),
(173,636,o),
(173,636,cs),
(177,683,o),
(87,621,o),
(83,578,cs),
(82,570,o),
(73,462,o),
(62,346,cs),
(51,221,o),
(38,87,o),
(32,55,cs)
);
},
{
closed = 1;
nodes = (
(348,4,o),
(438,62,o),
(447,107,cs),
(452,136,o),
(465,263,o),
(476,385,cs),
(488,513,o),
(498,636,o),
(498,636,cs),
(502,683,o),
(412,621,o),
(408,578,cs),
(407,571,o),
(400,491,o),
(392,394,cs),
(380,258,o),
(364,91,o),
(357,55,cs)
);
}
);
width = 557;
}
);
unicode = 78;
},
{
glyphname = O;
lastChange = "2024-01-12 07:07:25 +0000";
layers = (
{
layerId = m01;
shapes = (
{
closed = 1;
nodes = (
(115.966,32.728,o),
(98.234,-64.234,o),
(209.102,14.027,cs),
(323,95,o),
(449,246,o),
(434,430,cs),
(427,519,o),
(387,615,o),
(296.326,715.059,cs),
(281.722,731.182,o),
(184.622,545.556,o),
(199.674,528.941,cs),
(285,435,o),
(320,360,o),
(327,299,cs),
(345,161,o),
(219,105,o),
(216.898,103.973,cs)
);
},
{
closed = 1;
nodes = (
(280.679,591.11,o),
(341.263,763.076,o),
(273.711,697.571,cs),
(208,634,o),
(16,366,o),
(1,176,cs),
(-6,81,o),
(30,6,o),
(147.278,-15.149,cs),
(184.408,-21.851,o),
(340.667,119.216,o),
(296.722,127.149,cs),
(205,144,o),
(160,186,o),
(143,236,cs),
(102,360,o),
(224,536,o),
(224.289,536.429,cs)
);
}
);
width = 469;
}
);
unicode = 79;
},
{
glyphname = P;
lastChange = "2024-01-12 07:07:25 +0000";
layers = (
{
guides = (
{
pos = (113,716);
},
{
pos = (-217,587);
},
{
pos = (-226,373);
}
);
layerId = m01;
shapes = (
{
closed = 1;
nodes = (
(197,226,o),
(266,221,o),
(330,305,cs),
(457,470,o),
(459,583,o),
(403,648,cs),
(349,710,o),
(243,728,o),
(140,707,cs),
(118,702,o),
(35,564,o),
(62,569,cs),
(188,595,o),
(267,568,o),
(299,514,cs),
(332,461,o),
(318,383,o),
(260,307,cs)
);
},
{
closed = 1;
nodes = (
(266,214,o),
(383,364,o),
(334,369,cs),
(182,386,o),
(130,407,o),
(98,394,cs),
(76,386,o),
(17,216,o),
(40,226,cs),
(48,229,o),
(86,234,o),
(224,219,cs)
);
},
{
closed = 1;
nodes = (
(217,629,o),
(76,519,o),
(74,492,cs),
(66,363,o),
(58,235,o),
(49,106,cs),
(45,42,o),
(58,0,o),
(89,0,cs),
(113,0,o),
(240,130,o),
(211,130,cs),
(190,130,o),
(186,150,o),
(191,214,cs),
(199,343,o),
(207,471,o),
(216,600,cs)
);
}
);
width = 443;
}
);
unicode = 80;
},
{
glyphname = Q;
lastChange = "2024-01-12 07:07:25 +0000";
layers = (
{
layerId = m01;
shapes = (
{
closed = 1;
nodes = (
(263,335,o),
(219,290,o),
(221,273,cs),
(227,231,o),
(247,159,o),
(280,97,cs),
(318,26,o),
(374,-31,o),
(444,-13,cs),
(468,-7,o),
(541,194,o),
(514,187,cs),
(465,175,o),
(412,182,o),
(366,202,cs),
(313,225,o),
(272,267,o),
(265,319,cs)
);
},
{
closed = 1;
nodes = (
(136,33,o),
(118,-64,o),
(229,14,cs),
(359,106,o),
(505,290,o),
(439,509,cs),
(419,575,o),
(380,644,o),
(316,715,cs),
(302,731,o),
(205,546,o),
(220,529,cs),
(274,469,o),
(308,416,o),
(327,371,cs),
(408,180,o),
(239,105,o),
(237,104,cs)
);
},
{
closed = 1;
nodes = (
(301,591,o),
(361,763,o),
(294,698,cs),
(222,628,o),
(-5,308,o),
(22,120,cs),
(32,52,o),
(74,2,o),
(167,-15,cs),
(204,-22,o),
(361,119,o),
(317,127,cs),
(219,145,o),
(175,191,o),
(160,246,cs),
(129,369,o),
(244,536,o),
(244,536,cs)
);
}
);
width = 580;
}
);
unicode = 81;
},
{
glyphname = R;
lastChange = "2024-01-12 07:07:25 +0000";
layers = (
{
guides = (
{
angle = 180;
pos = (332,360);
},
{
pos = (178,564);
}
);
layerId = m01;
shapes = (
{
closed = 1;
nodes = (
(174,621,o),
(103,470,o),
(105,421,cs),
(107,357,o),
(146,269,o),
(195,189,cs),
(264,79,o),
(353,-13,o),
(394,0,cs),
(414,7,o),
(476,178,o),
(452,170,cs),
(408,155,o),
(341,221,o),
(284,307,cs),
(226,397,o),
(177,507,o),
(175,575,cs)
);
},
{
closed = 1;
nodes = (
(14,143,o),
(-42,-27,o),
(-11,2,cs),
(8,19,o),
(40,29,o),
(71,27,cs),
(96,27,o),
(120,18,o),
(134,0,cs),
(149,-19,o),
(211,150,o),
(198,168,cs),
(182,188,o),
(153,198,o),
(123,198,cs),
(93,197,o),
(61,187,o),
(39,166,cs)
);
},
{
closed = 1;
nodes = (
(173,642,o),
(80,560,o),
(76,462,cs),
(68,287,o),
(74,300,o),
(54,63,cs),
(50,17,o),
(129,64,o),
(132,105,cs),
(154,358,o),
(160,373,o),
(168,540,cs)
);
},
{
closed = 1;
nodes = (
(190,257,o),
(236,226,o),
(308,308,cs),
(430,445,o),
(457,542,o),
(433,606,cs),
(394,715,o),
(211,730,o),
(111,695,cs),
(87,687,o),
(-4,530,o),
(25,541,cs),
(162,589,o),
(268,560,o),
(301,496,cs),
(323,454,o),
(313,396,o),
(260,336,cs)
);
}
);
width = 517;
}
);
unicode = 82;
},
{
glyphname = S;
lastChange = "2024-01-12 07:07:25 +0000";
layers = (
{
layerId = m01;
shapes = (
{
closed = 1;
nodes = (
(265,418,o),
(389,525,o),
(415,574,cs),
(432,608,o),
(423,659,o),
(392,689,cs),
(357,724,o),
(291,733,o),
(203,660,cs),
(134,603,o),
(93,526,o),
(169,588,cs),
(190,606,o),
(232,593,o),
(263,567,cs),
(291,543,o),
(310,506,o),
(291,470,cs)
);
},
{
closed = 1;
nodes = (
(204,663,o),
(78,551,o),
(60,509,cs),
(16,409,o),
(93,359,o),
(162,294,cs),
(227,234,o),
(302,188,o),
(260,86,cs),
(245,49,o),
(370,163,o),
(386,202,cs),
(400,236,o),
(404,262,o),
(400,285,cs),
(391,345,o),
(331,372,o),
(284,416,cs),
(215,479,o),
(150,539,o),
(186,623,cs)
);
},
{
closed = 1;
nodes = (
(155,274,o),
(27,159,o),
(10,117,cs),
(-3,86,o),
(10,40,o),
(41,11,cs),
(80,-24,o),
(148,-34,o),
(235,40,cs),
(305,99,o),
(340,171,o),
(263,106,cs),
(248,94,o),
(201,108,o),
(167,137,cs),
(140,160,o),
(122,192,o),
(136,227,cs)
);
}
);
width = 464;
}
);
unicode = 83;
},
{
glyphname = T;
lastChange = "2024-01-12 07:07:25 +0000";
layers = (
{
layerId = m01;
shapes = (
{
closed = 1;
nodes = (
(427,565,o),
(487,733,o),
(440,710,cs),
(413,697,o),
(336,705,o),
(259,709,cs),
(186,712,o),
(114,712,o),
(85,686,cs),
(61,665,o),
(18,494,o),
(43,516,cs),
(71,540,o),
(154,536,o),
(233,534,cs),
(296,532,o),
(358,532,o),
(388,546,cs)
);
},
{
closed = 1;
nodes = (
(347,628,o),
(296,646,o),
(263,602,cs),
(139,443,o),
(78,262,o),
(70,164,cs),
(61,53,o),
(126,-31,o),
(210,-14,cs),
(243,-7,o),
(374,106,o),
(336,98,cs),
(274,85,o),
(192,177,o),
(200,280,cs),
(205,336,o),
(229,475,o),
(311,582,cs)
);
}
);
width = 422;
}
);
unicode = 84;
},
{
glyphname = U;
lastChange = "2024-01-12 07:07:25 +0000";
layers = (
{
layerId = m01;
shapes = (
{
closed = 1;
nodes = (
(395,376,o),
(355,382,o),
(352,355,cs),
(325,114,o),
(253,124,o),
(241,124,cs),
(192,120,o),
(180,203,o),
(189,293,cs),
(200,394,o),
(209,495,o),
(219,596,cs),
(226,664,o),
(194,723,o),
(142,706,cs),
(109,695,o),
(-13,565,o),
(28,578,cs),
(72,593,o),
(79,550,o),
(75,502,cs),
(64,401,o),
(55,300,o),
(45,199,cs),
(34,96,o),
(97,-23,o),
(193,-16,cs),
(317,-6,o),
(377,220,o),
(392,351,cs)
);
},
{
closed = 1;
nodes = (
(415,-1,o),
(531,117,o),
(503,117,cs),
(461,117,o),
(463,199,o),
(472,293,cs),
(483,394,o),
(493,495,o),
(503,596,cs),
(510,664,o),
(477,723,o),
(425,706,cs),
(392,695,o),
(270,565,o),
(311,578,cs),
(355,593,o),
(364,550,o),
(359,502,cs),
(348,401,o),
(338,300,o),
(328,199,cs),
(316,88,o),
(338,-1,o),
(391,-1,cs)
);
}
);
width = 567;
}
);
unicode = 85;
},
{
glyphname = V;
lastChange = "2024-01-12 07:07:25 +0000";
layers = (
{
layerId = m01;
shapes = (
{
closed = 1;
nodes = (
(505,648,o),
(409,626,o),
(403,605,cs),
(344,404,o),
(253,121,o),
(239,30,cs),
(235,8,o),
(344,111,o),
(347,134,cs),
(357,195,o),
(446,446,o),
(499,625,cs)
);
},
{
closed = 1;
nodes = (
(533,572,o),
(587,740,o),
(556,711,cs),
(538,694,o),
(505,685,o),
(475,685,cs),
(449,686,o),
(425,695,o),
(411,713,cs),
(397,731,o),
(332,564,o),
(347,545,cs),
(363,525,o),
(390,515,o),
(419,515,cs),
(450,515,o),
(483,526,o),
(506,547,cs)
);
},
{
closed = 1;
nodes = (
(248,6,o),
(372,144,o),
(321,121,cs),
(314,117,o),
(286,254,o),
(260,395,cs),
(243,485,o),
(226,577,o),
(215,635,cs),
(205,689,o),
(158,721,o),
(124,711,cs),
(92,701,o),
(-31,571,o),
(8,583,cs),
(46,595,o),
(77,563,o),
(87,511,cs),
(99,446,o),
(116,326,o),
(135,217,cs),
(157,88,o),
(181,-25,o),
(203,-15,cs)
);
}
);
width = 505;
}
);
unicode = 86;
},
{
glyphname = W;
lastChange = "2024-01-12 07:07:25 +0000";
layers = (
{
layerId = m01;
shapes = (
{
closed = 1;
nodes = (
(382,-18,o),
(510,110,o),
(500,127,cs),
(476,171,o),
(464,273,o),
(455,380,cs),
(442,526,o),
(432,681,o),
(399,711,cs),
(385,724,o),
(264,605,o),
(279,591,cs),
(310,563,o),
(316,404,o),
(327,255,cs),
(336,148,o),
(347,46,o),
(372,1,cs)
);
},
{
closed = 1;
nodes = (
(682,646,o),
(577,599,o),
(568,574,cs),
(484,331,o),
(408,37,o),
(405,26,cs),
(397,-1,o),
(512,110,o),
(519,138,cs),
(522,149,o),
(589,376,o),
(672,618,cs)
);
},
{
closed = 1;
nodes = (
(429,637,o),
(335,597,o),
(325,571,cs),
(284,463,o),
(181,70,o),
(180,70,cs),
(124,-1,o),
(204,57,o),
(260,126,cs),
(295,171,o),
(391,535,o),
(419,609,cs)
);
},
{
closed = 1;
nodes = (
(128,-19,o),
(256,109,o),
(249,128,cs),
(224,197,o),
(220,328,o),
(213,450,cs),
(204,597,o),
(189,729,o),
(126,709,cs),
(94,700,o),
(-21,577,o),
(18,589,cs),
(69,604,o),
(77,489,o),
(82,350,cs),
(87,228,o),
(90,87,o),
(121,2,cs)
);
},
{
closed = 1;
nodes = (
(699,573,o),
(753,742,o),
(722,712,cs),
(703,694,o),
(665,684,o),
(631,687,cs),
(607,689,o),
(585,698,o),
(573,714,cs),
(559,732,o),
(495,566,o),
(509,546,cs),
(524,527,o),
(552,517,o),
(581,516,cs),
(614,516,o),
(649,527,o),
(672,548,cs)
);
}
);
width = 701;
}
);
unicode = 87;
},
{
glyphname = X;
lastChange = "2024-01-12 07:07:25 +0000";
layers = (
{
layerId = m01;
shapes = (
{
closed = 1;
nodes = (
(483,616,o),
(374,594,o),
(358,570,cs),
(350,558,o),
(302,479,o),
(248,391,cs),
(173,268,o),
(88,128,o),
(88,128,cs),
(73,102,o),
(183,127,o),
(196,149,cs),
(201,157,o),
(239,220,o),
(286,296,cs),
(357,414,o),
(447,563,o),
(466,590,cs)
);
},
{
closed = 1;
nodes = (
(402,-4,o),
(508,140,o),
(472,127,cs),
(440,115,o),
(380,277,o),
(319,434,cs),
(259,586,o),
(197,734,o),
(156,713,cs),
(123,696,o),
(19,552,o),
(60,573,cs),
(92,589,o),
(154,422,o),
(217,261,cs),
(275,114,o),
(334,-28,o),
(372,-15,cs)
);
},
{
closed = 1;
nodes = (
(85,-47,o),
(198,91,o),
(200,122,cs),
(201,145,o),
(188,172,o),
(171,196,cs),
(151,223,o),
(126,245,o),
(106,250,cs),
(88,255,o),
(-24,113,o),
(-2,108,cs),
(9,105,o),
(29,87,o),
(47,65,cs),
(68,40,o),
(87,8,o),
(86,-12,cs)
);
},
{
closed = 1;
nodes = (
(454,448,o),
(565,591,o),
(543,596,cs),
(529,600,o),
(506,620,o),
(488,644,cs),
(469,668,o),
(454,696,o),
(455,716,cs),
(456,749,o),
(343,616,o),
(341,582,cs),
(340,562,o),
(351,538,o),
(366,516,cs),
(387,485,o),
(416,458,o),
(435,454,cs)
);
}
);
width = 541;
}
);
unicode = 88;
},
{
glyphname = Y;
lastChange = "2024-01-12 07:07:25 +0000";
layers = (
{
layerId = m01;
shapes = (
{
closed = 1;
nodes = (
(530,703,o),
(415,647,o),
(394,579,cs),
(390,566,o),
(159,112,o),
(151,98,cs),
(112,21,o),
(217,52,o),
(255,126,cs),
(257,130,o),
(495,592,o),
(508,631,cs)
);
},
{
closed = 1;
nodes = (
(531,572,o),
(585,740,o),
(554,711,cs),
(537,695,o),
(507,686,o),
(478,685,cs),
(451,685,o),
(424,694,o),
(409,713,cs),
(395,731,o),
(330,564,o),
(345,545,cs),
(361,524,o),
(390,515,o),
(421,515,cs),
(451,516,o),
(482,527,o),
(504,547,cs)
);
},
{
closed = 1;
nodes = (
(272,336,o),
(381,461,o),
(327,433,cs),
(303,420,o),
(280,475,o),
(256,538,cs),
(224,624,o),
(189,726,o),
(147,709,cs),
(111,695,o),
(-9,565,o),
(35,583,cs),
(69,596,o),
(97,483,o),
(133,398,cs),
(158,338,o),
(187,291,o),
(225,311,cs)
);
},
{
closed = 1;
nodes = (
(114,143,o),
(58,-27,o),
(89,2,cs),
(107,19,o),
(140,29,o),
(170,27,cs),
(196,27,o),
(220,18,o),
(234,0,cs),
(249,-19,o),
(311,150,o),
(298,168,cs),
(283,187,o),
(258,196,o),
(231,198,cs),
(198,199,o),
(163,188,o),
(139,166,cs)
);
}
);
width = 513;
}
);
unicode = 89;
},
{
glyphname = Z;
lastChange = "2024-01-12 07:07:25 +0000";
layers = (
{
layerId = m01;
shapes = (
{
closed = 1;
nodes = (
(22,122,o),
(-25,-40,o),
(30,6,cs),
(67,39,o),
(123,25,o),
(181,12,cs),
(242,-2,o),
(305,-16,o),
(354,25,cs),
(377,44,o),
(423,218,o),
(396,195,cs),
(349,156,o),
(293,176,o),
(233,189,cs),
(179,201,o),
(122,207,o),
(66,160,cs)
);
},
{
closed = 1;
nodes = (
(97,657,o),
(42,487,o),
(76,524,cs),
(99,548,o),
(149,545,o),
(207,539,cs),
(269,533,o),
(340,524,o),
(399,540,cs),
(420,546,o),
(481,717,o),
(457,710,cs),
(401,693,o),
(335,704,o),
(276,710,cs),
(213,717,o),
(156,721,o),
(124,686,cs)
);
},
{
closed = 1;
nodes = (
(433,604,o),
(335,590,o),
(326,568,cs),
(268,426,o),
(81,211,o),
(46,100,cs),
(39,78,o),
(138,94,o),
(144,114,cs),
(177,219,o),
(364,434,o),
(424,582,cs)
);
},
{
closed = 1;
nodes = (
(135,444,o),
(76,273,o),
(104,292,cs),
(121,304,o),
(152,294,o),
(186,281,cs),
(231,263,o),
(281,239,o),
(312,252,cs),
(334,261,o),
(394,431,o),
(368,420,cs),
(349,412,o),
(320,423,o),
(288,435,cs),
(241,455,o),
(188,480,o),
(158,460,cs)
);
}
);
width = 467;
}
);
unicode = 90;
},
{
glyphname = a;
lastChange = "2024-01-12 07:07:25 +0000";
layers = (
{
background = {
shapes = (
{
closed = 1;
nodes = (
);
}
);
};
guides = (
{
pos = (289,715);
}
);
layerId = m01;
shapes = (
{
closed = 1;
nodes = (
(299,-6,o),
(440,140,o),
(412,146,cs),
(388,152,o),
(398,241,o),
(411,428,cs),
(415,484,o),
(419,508,o),
(425,579,cs),
(428,614,o),
(419,664,o),
(394,692,cs),
(357,733,o),
(286,728,o),
(165,571,cs),
(99,486,o),
(145,481,o),
(213,569,cs),
(215,571,o),
(291,582,o),
(279,445,cs),
(273,372,o),
(271,350,o),
(267,292,cs),
(252,89,o),
(238,8,o),
(276,0,cs)
);
},
{
closed = 1;
nodes = (
(54,398,o),
(-7,228,o),
(14,228,cs),
(146,229,o),
(279,229,o),
(411,229,cs),
(430,229,o),
(492,399,o),
(471,399,cs),
(339,398,o),
(206,398,o),
(74,398,cs)
);
},
{
closed = 1;
nodes = (
(261,667,o),
(167,592,o),
(132,526,cs),
(117,498,o),
(100,454,o),
(93,407,cs),
(78,308,o),
(63,154,o),
(45,16,cs),
(39,-35,o),
(131,34,o),
(137,78,cs),
(155,224,o),
(172,385,o),
(187,489,cs),
(194,536,o),
(221,592,o),
(222,594,cs)
);
}
);
width = 515;
}
);
unicode = 97;
},
{
glyphname = b;
lastChange = "2024-01-12 07:07:25 +0000";
layers = (
{
guides = (
{
pos = (310,715);
}
);
layerId = m01;
shapes = (
{
closed = 1;
nodes = (
(230,643,o),
(107,571,o),
(83,518,cs),
(15,364,o),
(32,128,o),
(32,119,cs),
(32,77,o),
(143,154,o),
(142,193,cs),
(142,194,o),
(148,459,o),
(203,582,cs)
);
},
{
closed = 1;
nodes = (
(46,207,o),
(59,101,o),
(79,184,cs),
(101,278,o),
(241,325,o),
(323,291,cs),
(372,270,o),
(399,220,o),
(367,133,cs),
(345,76,o),
(455,196,o),
(475,249,cs),
(506,331,o),
(484,391,o),
(436,426,cs),
(332,502,o),
(107,461,o),
(63,278,cs)
);
},
{
closed = 1;
nodes = (
(159,376,o),
(150,285,o),
(231,345,cs),
(462,515,o),
(469,648,o),
(397,697,cs),
(317,751,o),
(138,699,o),
(66,473,cs),
(32,364,o),
(110,342,o),
(146,455,cs),
(171,536,o),
(257,567,o),
(296,553,cs),
(328,542,o),
(327,500,o),
(233,431,cs)
);
},
{
closed = 1;
nodes = (
(502,334,o),
(477,354,o),
(443,257,cs),
(413,174,o),
(315,142,o),
(237,152,cs),
(162,161,o),
(106,211,o),
(150,295,cs),
(188,368,o),
(91,277,o),
(52,203,cs),
(-4,96,o),
(65,2,o),
(166,-12,cs),
(265,-26,o),
(395,36,o),
(467,237,cs)
);
}
);
width = 517;
}
);
unicode = 98;
},
{
glyphname = c;
lastChange = "2024-01-12 07:07:25 +0000";
layers = (
{
guides = (
{
pos = (324,715);
}
);
layerId = m01;
shapes = (
{
closed = 1;
nodes = (
(286,642,o),
(218,636,o),
(151,545,cs),
(31,383,o),
(10,216,o),
(46,106,cs),
(91,-30,o),
(223,-76,o),
(366,91,cs),
(442,179,o),
(451,282,o),
(368,185,cs),
(301,108,o),
(224,147,o),
(184,232,cs),
(145,316,o),
(141,445,o),
(219,551,cs)
);
},
{
closed = 1;
nodes = (
(343,483,o),
(470,610,o),
(461,628,cs),
(450,649,o),
(427,698,o),
(384,711,cs),
(351,722,o),
(307,711,o),
(249,652,cs),
(179,582,o),
(141,482,o),
(217,560,cs),
(246,589,o),
(304,557,o),
(333,502,cs)
);
}
);
width = 471;
}
);
unicode = 99;
},
{
glyphname = d;
lastChange = "2024-01-12 07:07:25 +0000";
layers = (
{
guides = (
{
pos = (295,715);
}
);
layerId = m01;
shapes = (
{
closed = 1;
nodes = (
(124,725,o),
(47,562,o),
(65,553,cs),
(188,485,o),
(261,414,o),
(303,355,cs),
(357,278,o),
(360,221,o),
(356,213,cs),
(306,111,o),
(378,121,o),
(428,223,cs),
(485,339,o),
(468,436,o),
(397,523,cs),
(342,591,o),
(254,654,o),
(141,715,cs)
);
},
{
closed = 1;
nodes = (
(171,592,o),
(89,567,o),
(87,546,cs),
(73,394,o),
(60,242,o),
(47,90,cs),
(45,68,o),
(127,94,o),
(129,114,cs),
(143,266,o),
(156,418,o),
(169,570,cs)
);
},
{
closed = 1;
nodes = (
(48,233,o),
(-15,49,o),
(3,37,cs),
(42,9,o),
(87,-13,o),
(137,-15,cs),
(212,-19,o),
(296,22,o),
(385,152,cs),
(441,232,o),
(404,281,o),
(347,198,cs),
(326,169,o),
(284,149,o),
(227,154,cs),
(181,158,o),
(127,178,o),
(65,221,cs)
);
}
);
width = 497;
}
);
unicode = 100;
},
{
glyphname = e;
lastChange = "2024-01-12 07:07:25 +0000";
layers = (
{
guides = (
{
pos = (306,715);
}
);
layerId = m01;
shapes = (
{
closed = 1;
nodes = (
(310.619,455.27,o),
(438.273,582.885,o),
(431.224,601.745,cs),
(392.718,704.775,o),
(317.905,729.798,o),
(266.869,705.868,cs),
(158,655,o),
(104,506,o),
(75,361,cs),
(48,224,o),
(42,89,o),
(32.974,41.429,cs),
(21.81,-16.033,o),
(42.447,-1.122,o),
(44.28,-0.471,cs),
(88.537,15.265,o),
(120.535,22.899,o),
(170.729,14.3,cs),
(231.032,3.969,o),
(311.837,-26.937,o),
(377.092,26.453,cs),
(419.082,60.809,o),
(460.103,227.433,o),
(408.908,185.547,cs),
(386.163,166.937,o),
(286.989,174.155,o),
(231.271,183.7,cs),
(187.482,191.201,o),
(151.463,192.735,o),
(105.72,176.471,c),
(109.489,162.504,o),
(113.257,148.537,o),
(117.026,134.571,c),
(166.152,387.425,o),
(182.891,538.077,o),
(217.131,554.132,cs),
(243.161,566.338,o),
(266.819,572.464,o),
(302.776,476.255,cs)
);
},
{
closed = 1;
nodes = (
(63.231,437.661,o),
(2.981,268.21,o),
(24.276,268.276,cs),
(131.943,268.609,o),
(239.61,268.942,o),
(347.276,269.276,cs),
(367.333,269.338,o),
(428.893,438.793,o),
(406.724,438.724,cs),
(299.057,438.391,o),
(191.39,438.058,o),
(83.724,437.724,cs)
);
}
);
width = 483;
}
);
unicode = 101;
},
{
glyphname = f;
lastChange = "2024-01-12 07:07:25 +0000";
layers = (
{
layerId = m01;
shapes = (
{
closed = 1;
nodes = (
(443,604,o),
(479,759,o),
(435,701,cs),
(414,674,o),
(351,659,o),
(309,659,cs),
(254,659,o),
(192,681,o),
(159,710,cs),
(129,738,o),
(80,578,o),
(80,574,cs),
(61,383,o),
(37,200,o),
(20,17,cs),
(15,-31,o),
(108,31,o),
(112,77,cs),
(132,282,o),
(145,487,o),
(164,684,c),
(138,638,o),
(111,593,o),
(85,548,c),
(124,511,o),
(192,489,o),
(249,489,cs),
(303,489,o),
(352,486,o),
(403,553,cs)
);
},
{
closed = 1;
nodes = (
(343,226,o),
(393,399,o),
(372,400,cs),
(274,400,o),
(175,401,o),
(77,402,cs),
(58,402,o),
(8,229,o),
(29,228,cs),
(127,228,o),
(226,227,o),
(324,226,cs)
);
}
);
width = 431;
}
);
unicode = 102;
},
{
glyphname = g;
lastChange = "2024-01-12 07:07:25 +0000";
layers = (
{
layerId = m01;
shapes = (
{
closed = 1;
nodes = (
(271,641,o),
(207,632,o),
(139,541,cs),
(11,371,o),
(-10,197,o),
(26,90,cs),
(68,-33,o),
(186,-67,o),
(306,95,cs),
(384,200,o),
(395,284,o),
(314,175,cs),
(267,111,o),
(195,157,o),
(160,246,cs),
(127,328,o),
(125,447,o),
(203,551,cs)
);
},
{
closed = 1;
nodes = (
(269,350,o),
(181,218,o),
(242,266,cs),
(264,284,o),
(340,296,o),
(334,209,cs),
(332,168,o),
(324,126,o),
(319,85,cs),
(311,14,o),
(335,-5,o),
(343,-14,cs),
(356,-29,o),
(484,98,o),
(471,112,cs),
(465,119,o),
(453,128,o),
(461,193,cs),
(465,234,o),
(473,275,o),
(476,317,cs),
(478,351,o),
(463,380,o),
(439,397,cs),
(408,421,o),
(361,423,o),
(318,390,cs)
);
},
{
closed = 1;
nodes = (
(354,482,o),
(481,609,o),
(471,626,cs),
(457,650,o),
(427,700,o),
(378,711,cs),
(345,718,o),
(302,708,o),
(249,659,cs),
(185,601,o),
(126,482,o),
(199,549,cs),
(251,596,o),
(313,551,o),
(343,500,cs)
);
}
);
width = 526;
}
);
unicode = 103;
},
{
glyphname = h;
lastChange = "2024-01-12 07:07:25 +0000";
layers = (
{
layerId = m01;
shapes = (
{
closed = 1;
nodes = (
(84,437,o),
(23,267,o),
(44,267,cs),
(188,268,o),
(333,268,o),
(477,268,cs),
(496,268,o),
(558,438,o),
(537,438,cs),
(393,437,o),
(248,437,o),
(104,437,cs)
);
},
{
closed = 1;
nodes = (
(205,726,o),
(75,603,o),
(85,584,cs),
(102,552,o),
(103,548,o),
(98,500,cs),
(87,369,o),
(79,237,o),
(69,106,cs),
(64,39,o),
(78,20,o),
(107,0,cs),
(123,-11,o),
(250,116,o),
(233,128,cs),
(210,144,o),
(206,153,o),
(211,214,cs),
(221,345,o),
(228,477,o),
(240,608,cs),
(244,662,o),
(234,674,o),
(215,708,cs)
);
},
{
closed = 1;
nodes = (
(473,726,o),
(343,603,o),
(353,584,cs),
(370,553,o),
(370,548,o),
(366,500,cs),
(356,369,o),
(347,237,o),
(337,106,cs),
(332,39,o),
(346,20,o),
(375,0,cs),
(391,-11,o),
(518,116,o),
(501,128,cs),
(478,144,o),
(474,153,o),
(479,214,cs),
(489,345,o),
(498,477,o),
(508,608,cs),
(512,662,o),
(502,673,o),
(483,708,cs)
);
}
);
width = 581;
}
);
unicode = 104;
},
{
glyphname = i;
lastChange = "2024-01-12 07:07:25 +0000";
layers = (
{
layerId = m01;
shapes = (
{
closed = 1;
nodes = (
(187,726,o),
(57,603,o),
(67,584,cs),
(84,553,o),
(85,548,o),
(80,490,cs),
(70,362,o),
(61,234,o),
(51,106,cs),
(46,39,o),
(60,20,o),
(89,0,cs),
(105,-11,o),
(232,116,o),
(215,128,cs),
(192,144,o),
(188,153,o),
(193,214,cs),
(202,342,o),
(211,470,o),
(222,598,cs),
(227,662,o),
(216,673,o),
(197,708,cs)
);
}
);
width = 273;
}
);
unicode = 105;
},
{
glyphname = j;
lastChange = "2024-01-12 07:07:25 +0000";
layers = (
{
layerId = m01;
shapes = (
{
closed = 1;
nodes = (
(149,307,o),
(20,198,o),
(-2,153,cs),
(-32,93,o),
(-8,28,o),
(42,-1,cs),
(94,-32,o),
(176,-22,o),
(254,77,cs),
(303,141,o),
(308,230,o),
(254,161,cs),
(225,124,o),
(179,116,o),
(146,133,cs),
(112,150,o),
(93,194,o),
(124,257,cs)
);
},
{
closed = 1;
nodes = (
(435,741,o),
(299,652,o),
(274,597,cs),
(263,572,o),
(263,566,o),
(257,506,cs),
(247,379,o),
(239,253,o),
(229,126,cs),
(221,13,o),
(279,132,o),
(278,131,cs),
(226,99,o),
(123,-24,o),
(186,15,cs),
(271,67,o),
(368,203,o),
(371,234,cs),
(380,361,o),
(388,488,o),
(399,614,cs),
(404,676,o),
(405,674,o),
(410,685,cs)
);
},
{
closed = 1;
nodes = (
(354,618,o),
(419,727,o),
(366,685,cs),
(339,663,o),
(305,659,o),
(274,663,cs),
(233,670,o),
(196,693,o),
(187,713,cs),
(178,735,o),
(75,590,o),
(85,567,cs),
(92,550,o),
(124,531,o),
(168,530,cs),
(208,529,o),
(258,541,o),
(308,581,cs)
);
}
);
width = 443;
}
);
unicode = 106;
},
{
glyphname = k;
lastChange = "2024-01-12 07:07:25 +0000";
layers = (
{
guides = (
{
pos = (169,711);
}
);
layerId = m01;
shapes = (
{
closed = 1;
nodes = (
(157,721,o),
(26,591,o),
(42,578,cs),
(47,575,o),
(65,551,o),
(61,496,cs),
(51,370,o),
(41,244,o),
(32,118,cs),
(26,48,o),
(33,20,o),
(69,0,cs),
(89,-11,o),
(220,140,o),
(199,152,cs),
(185,160,o),
(172,170,o),
(176,230,cs),
(186,356,o),
(196,482,o),
(205,608,cs),
(211,677,o),
(183,701,o),
(172,710,cs)
);
},
{
closed = 1;
nodes = (
(564,734,o),
(432,709,o),
(389,659,cs),
(368,636,o),
(105,291,o),
(102,288,cs),
(66,242,o),
(202,287,o),
(236,330,cs),
(248,345,o),
(495,655,o),
(517,681,cs)
);
},
{
closed = 1;
nodes = (
(87,291,o),
(58,164,o),
(111,222,cs),
(183,299,o),
(263,305,o),
(312,263,cs),
(356,224,o),
(373,144,o),
(329,40,cs),
(289,-55,o),
(440,33,o),
(475,116,cs),
(544,282,o),
(494,388,o),
(404,423,cs),
(325,454,o),
(214,429,o),
(131,338,cs)
);
}
);
width = 567;
}
);
unicode = 107;
},
{
glyphname = l;
lastChange = "2024-01-12 07:07:25 +0000";
layers = (
{
layerId = m01;
shapes = (
{
closed = 1;
nodes = (
(167,721,o),
(36,591,o),
(52,578,cs),
(57,575,o),
(75,551,o),
(71,496,cs),
(61,370,o),
(51,244,o),
(42,118,cs),
(37,54,o),
(37,0,o),
(82,0,cs),
(108,0,o),
(239,152,o),
(206,152,cs),
(183,152,o),
(182,165,o),
(186,230,cs),
(196,356,o),
(206,482,o),
(215,608,cs),
(221,677,o),
(193,701,o),
(182,710,cs)
);
},
{
closed = 1;
nodes = (
(151,125,o),
(75,-7,o),
(122,30,cs),
(153,55,o),
(188,59,o),
(220,52,cs),
(259,44,o),
(291,20,o),
(299,1,cs),
(308,-22,o),
(410,127,o),
(401,147,cs),
(394,165,o),
(359,191,o),
(312,195,cs),
(276,199,o),
(232,190,o),
(188,156,cs)
);
}
);
width = 422;
}
);
unicode = 108;
},
{
glyphname = m;
lastChange = "2024-01-12 07:07:25 +0000";
layers = (
{
layerId = m01;
shapes = (
{
closed = 1;
nodes = (
(221,720,o),
(91,591,o),
(107,579,cs),
(140,555,o),
(174,422,o),
(198,279,cs),
(215,180,o),
(228,76,o),
(232,3,cs),
(234,-25,o),
(365,104,o),
(364,129,cs),
(359,213,o),
(344,336,o),
(323,447,cs),
(299,574,o),
(268,687,o),
(237,709,cs)
);
},
{
closed = 1;
nodes = (
(-18,-34,o),
(80,31,o),
(92,79,cs),
(161,354,o),
(179,633,o),
(179,634,cs),
(182,667,o),
(90,587,o),
(87,556,cs),
(86,545,o),
(64,295,o),
(-4,21,cs)
);
},
{
closed = 1;
nodes = (
(207,55,o),
(324,127,o),
(347,174,cs),
(459,398,o),
(511,637,o),
(511,639,cs),
(523,686,o),
(412,596,o),
(401,551,cs),
(398,541,o),
(342,327,o),
(233,106,cs)
);
},
{
closed = 1;
nodes = (
(531,707,o),
(399,575,o),
(427,575,cs),
(446,575,o),
(443,429,o),
(447,281,cs),
(449,166,o),
(455,50,o),
(478,1,cs),
(488,-19,o),
(618,111,o),
(610,129,cs),
(585,181,o),
(581,305,o),
(578,426,cs),
(576,569,o),
(577,707,o),
(553,707,cs)
);
}
);
width = 655;
}
);
unicode = 109;
},
{
glyphname = n;
lastChange = "2024-01-12 07:07:25 +0000";
layers = (
{
layerId = m01;
shapes = (
{
closed = 1;
nodes = (
(170,725,o),
(49,606,o),
(59,588,cs),
(106,502,o),
(162,373,o),
(219,255,cs),
(272,145,o),
(326,45,o),
(377,0,cs),
(391,-13,o),
(512,107,o),
(497,120,cs),
(464,149,o),
(473,149,o),
(509,598,cs),
(514,661,o),
(503,673,o),
(485,707,cs),
(475,726,o),
(351,609,o),
(361,591,cs),
(379,559,o),
(380,555,o),
(375,496,cs),
(339,39,o),
(336,37,o),
(377,0,cs),
(391,-13,o),
(512,107,o),
(497,120,cs),
(440,171,o),
(377,294,o),
(318,421,cs),
(269,525,o),
(222,632,o),
(181,706,cs)
);
},
{
closed = 1;
nodes = (
(20,-30,o),
(111,27,o),
(121,72,cs),
(132,126,o),
(172,594,o),
(172,595,cs),
(176,642,o),
(86,580,o),
(82,537,cs),
(80,521,o),
(43,75,o),
(31,22,cs)
);
}
);
width = 570;
}
);
unicode = 110;
},
{
glyphname = o;
lastChange = "2024-01-11 21:25:57 +0000";
layers = (
{
layerId = m01;
shapes = (
{
closed = 1;
nodes = (
(265.325,659.434,o),
(172.892,617.163,o),
(118.74,529.794,cs),
(88,480,o),
(65,432,o),
(48,387,cs),
(-6,245,o),
(2,126,o),
(42,55,cs),
(87,-24,o),
(172,-45,o),
(260.379,26.807,cs),
(321.035,75.811,o),
(404.087,248.123,o),
(333.621,191.193,cs),
(259,131,o),
(193,155,o),
(160,223,cs),
(122,301,o),
(127,437,o),
(211.26,572.206,cs)
);
},
{
closed = 1;
nodes = (
(210.034,54.669,o),
(282.573,60,o),
(354.199,159.567,cs),
(474,326,o),
(491,477,o),
(460,580,cs),
(426,695,o),
(333,748,o),
(254.263,693.894,cs),
(192.123,650.666,o),
(79.811,485.288,o),
(155.737,538.106,cs),
(213,578,o),
(266,536,o),
(298,465,cs),
(337,376,o),
(344,240,o),
(281.801,154.433,cs)
);
}
);
width = 494;
}
);
unicode = 111;
},
{
glyphname = p;
lastChange = "2024-01-12 07:07:25 +0000";
layers = (
{
guides = (
{
pos = (712,374);
},
{
pos = (624,569);
}
);
layerId = m01;
shapes = (
{
closed = 1;
nodes = (
(211,577,o),
(93,517,o),
(61,458,cs),
(12,371,o),
(15,16,o),
(15,11,cs),
(14,-33,o),
(140,59,o),
(141,99,cs),
(141,113,o),
(147,463,o),
(175,514,cs)
);
},
{
closed = 1;
nodes = (
(113,273,o),
(192,259,o),
(264,326,cs),
(292,352,o),
(315,378,o),
(335,402,cs),
(470,564,o),
(441,681,o),
(360,711,cs),
(273,743,o),
(125,674,o),
(56,451,cs),
(22,343,o),
(100,323,o),
(136,437,cs),
(172,550,o),
(255,585,o),
(288,556,cs),
(317,530,o),
(306,454,o),
(184,340,cs)
);
},
{
closed = 1;
nodes = (
(277,325,o),
(345,430,o),
(273,383,cs),
(236,359,o),
(123,383,o),
(111,433,cs),
(102,469,o),
(34,329,o),
(43,295,cs),
(57,241,o),
(106,213,o),
(213,283,cs)
);
}
);
width = 428;
}
);
unicode = 112;
},
{
glyphname = q;
lastChange = "2024-01-12 07:07:25 +0000";
layers = (
{
background = {
shapes = (
{
closed = 1;
nodes = (
);
},
{
closed = 1;
nodes = (
);
}
);
};
guides = (
{
pos = (298,713);
}
);
layerId = m01;
shapes = (
{
closed = 1;
nodes = (
(241,345,o),
(186,285,o),
(198,260,cs),
(211,234,o),
(352,-9,o),
(352,-9,cs),
(366,-33,o),
(421,27,o),
(408,51,cs),
(400,65,o),
(273,281,o),
(254,320,cs)
);
},
{
closed = 1;
nodes = (
(266,659,o),
(174,617,o),
(120,530,cs),
(-4,331,o),
(-10,158,o),
(39,62,cs),
(82,-22,o),
(168,-46,o),
(254,24,cs),
(307,66,o),
(402,243,o),
(342,194,cs),
(260,128,o),
(190,156,o),
(158,231,cs),
(124,311,o),
(132,443,o),
(212,572,cs)
);
},
{
closed = 1;
nodes = (
(213,42,o),
(289,82,o),
(356,176,cs),
(461,322,o),
(483,457,o),
(462,555,cs),
(436,682,o),
(337,748,o),
(257,695,cs),
(196,655,o),
(81,488,o),
(155,537,cs),
(214,575,o),
(273,525,o),
(306,444,cs),
(342,354,o),
(346,227,o),
(282,138,cs)
);
}
);
width = 489;
}
);
unicode = 113;
},
{
glyphname = r;
lastChange = "2024-01-12 07:07:25 +0000";
layers = (
{
guides = (
{
pos = (287,713);
}
);
layerId = m01;
shapes = (
{
closed = 1;
nodes = (
(215,631,o),
(96,569,o),
(65,511,cs),
(-8,374,o),
(13,16,o),
(13,11,cs),
(15,-32,o),
(140,61,o),
(139,101,cs),
(138,116,o),
(123,459,o),
(181,567,cs)
);
},
{
closed = 1;
nodes = (
(131,346,o),
(132,263,o),
(211,325,cs),
(452,513,o),
(443,659,o),
(357,700,cs),
(271,741,o),
(110,678,o),
(42,452,cs),
(10,343,o),
(89,326,o),
(124,440,cs),
(149,525,o),
(236,558,o),
(275,542,cs),
(307,529,o),
(306,483,o),
(207,405,cs)
);
},
{
closed = 1;
nodes = (
(21,288,o),
(-8,160,o),
(45,216,cs),
(114,289,o),
(196,298,o),
(245,258,cs),
(290,221,o),
(308,145,o),
(263,41,cs),
(223,-55,o),
(373,31,o),
(409,115,cs),
(462,240,o),
(446,328,o),
(397,379,cs),
(322,456,o),
(168,443,o),
(65,334,cs)
);
}
);
width = 485;
}
);
unicode = 114;
},
{
glyphname = s;
lastChange = "2024-01-12 07:07:25 +0000";
layers = (
{
guides = (
{
pos = (271,713);
}
);
layerId = m01;
shapes = (
{
closed = 1;
nodes = (
(50,270,o),
(-16,106,o),
(-3,80,cs),
(11,52,o),
(56,3,o),
(116,-11,cs),
(171,-25,o),
(239,-8,o),
(305,86,cs),
(375,185,o),
(400,248,o),
(399,291,cs),
(398,356,o),
(338,379,o),
(275,420,cs),
(116,524,o),
(147,553,o),
(151,558,cs),
(167,581,o),
(304,560,o),
(355,447,cs),
(366,422,o),
(429,592,o),
(419,613,cs),
(410,634,o),
(377,675,o),
(331,697,cs),
(275,725,o),
(201,725,o),
(131,626,cs),
(-26,405,o),
(47,358,o),
(151,290,cs),
(311,185,o),
(298,174,o),
(283,152,cs),
(272,136,o),
(226,135,o),
(178,152,cs),
(134,167,o),
(86,198,o),
(63,246,cs)
);
}
);
width = 445;
}
);
unicode = 115;
},
{
glyphname = t;
lastChange = "2024-01-12 07:07:25 +0000";
layers = (
{
layerId = m01;
shapes = (
{
closed = 1;
nodes = (
(430,541,o),
(498,708,o),
(456,701,cs),
(357,684,o),
(144,717,o),
(81,684,cs),
(59,672,o),
(13,500,o),
(37,512,cs),
(90,539,o),
(295,518,o),
(396,535,cs)
);
},
{
closed = 1;
nodes = (
(285,570,o),
(151,443,o),
(160,423,cs),
(173,393,o),
(112,82,o),
(145,2,cs),
(154,-18,o),
(285,113,o),
(277,132,cs),
(246,206,o),
(309,513,o),
(294,549,cs)
);
}
);
width = 439;
}
);
unicode = 116;
},
{
glyphname = u;
lastChange = "2024-01-12 07:07:25 +0000";
layers = (
{
guides = (
{
pos = (274,713);
}
);
layerId = m01;
shapes = (
{
closed = 1;
nodes = (
(162,721,o),
(26,584,o),
(48,573,cs),
(77,560,o),
(68,400,o),
(46,131,cs),
(41,75,o),
(59,19,o),
(97,-5,cs),
(140,-32,o),
(209,-16,o),
(300,93,cs),
(356,161,o),
(379,244,o),
(318,171,cs),
(274,119,o),
(235,110,o),
(210,134,cs),
(189,154,o),
(178,197,o),
(182,255,cs),
(206,531,o),
(219,694,o),
(180,713,cs)
);
},
{
closed = 1;
nodes = (
(244,75,o),
(297,85,o),
(349,157,cs),
(379,199,o),
(406,260,o),
(413,301,cs),
(436,436,o),
(440,564,o),
(445,698,cs),
(446,745,o),
(355,673,o),
(353,630,cs),
(348,490,o),
(343,360,o),
(319,221,cs),
(308,154,o),
(298,150,o),
(297,149,cs)
);
}
);
width = 465;
}
);
unicode = 117;
},
{
glyphname = v;
lastChange = "2024-01-12 07:07:25 +0000";
layers = (
{
guides = (
{
pos = (278,713);
}
);
layerId = m01;
shapes = (
{
closed = 1;
nodes = (
(517,752,o),
(403,675,o),
(385,618,cs),
(327,435,o),
(221,86,o),
(208,30,cs),
(199,-7,o),
(329,116,o),
(336,148,cs),
(345,186,o),
(445,525,o),
(497,690,cs)
);
},
{
closed = 1;
nodes = (
(190,-27,o),
(323,106,o),
(308,119,cs),
(290,133,o),
(271,144,o),
(257,229,cs),
(245,304,o),
(241,428,o),
(216,599,cs),
(206,666,o),
(191,708,o),
(162,713,cs),
(143,717,o),
(14,589,o),
(38,585,cs),
(49,582,o),
(71,546,o),
(80,481,cs),
(105,316,o),
(101,194,o),
(113,123,cs),
(128,28,o),
(150,5,o),
(174,-15,cs)
);
}
);
width = 475;
}
);
unicode = 118;
},
{
glyphname = w;
lastChange = "2024-01-12 07:07:25 +0000";
layers = (
{
guides = (
{
pos = (288,713);
}
);
layerId = m01;
shapes = (
{
closed = 1;
nodes = (
(365.713,-16.955,o),
(486.251,103.084,o),
(476.577,120.467,cs),
(448,172,o),
(439,289,o),
(434,405,cs),
(427,545,o),
(424,684,o),
(394.104,712.104,cs),
(380.591,725.087,o),
(259.186,606.029,o),
(273.896,591.896,cs),
(301,566,o),
(303,419,o),
(311,275,cs),
(317,163,o),
(327,53,o),
(355.423,1.533,cs)
);
},
{
closed = 1;
nodes = (
(718.226,749.698,o),
(600.134,678.837,o),
(578.33,625.909,cs),
(450.233,314.965,o),
(399.985,45.67,o),
(398.742,40.167,cs),
(391.506,8.137,o),
(501.727,124.493,o),
(509.258,157.833,cs),
(511.533,167.902,o),
(568.894,387.206,o),
(693.67,690.091,cs)
);
},
{
closed = 1;
nodes = (
(128.713,-16.955,o),
(249.251,103.084,o),
(239.577,120.467,cs),
(213,168,o),
(204,269,o),
(198,375,cs),
(189,524,o),
(187,682,o),
(156.104,712.104,cs),
(142.681,725.259,o),
(21.324,606.176,o),
(35.896,591.896,cs),
(59,570,o),
(63,457,o),
(70,334,cs),
(76,204,o),
(85,62,o),
(118.423,1.533,cs)
);
},
{
closed = 1;
nodes = (
(421.728,640.114,o),
(326.43,611.512,o),
(317.714,588.651,cs),
(251.983,416.243,o),
(164.026,51.965,o),
(160.737,39.298,cs),
(151.492,3.692,o),
(259.028,118.986,o),
(267.263,150.702,cs),
(269.969,161.122,o),
(350.299,452.76,o),
(412.286,615.349,cs)
);
}
);
width = 656;
}
);
unicode = 119;
},
{
glyphname = x;
lastChange = "2024-01-12 07:07:25 +0000";
layers = (
{
guides = (
{
pos = (246,713);
}
);
layerId = m01;
shapes = (
{
closed = 1;
nodes = (
(582,742,o),
(459,711,o),
(417,649,cs),
(406,634,o),
(335,529,o),
(254,410,cs),
(137,237,o),
(0,36,o),
(0,36,cs),
(-45,-30,o),
(80,4,o),
(120,64,cs),
(120,64,o),
(205,188,o),
(298,325,cs),
(405,483,o),
(523,657,o),
(537,677,cs)
);
},
{
closed = 1;
nodes = (
(405,4,o),
(513,148,o),
(484,142,cs),
(450,137,o),
(387,289,o),
(323,437,cs),
(260,582,o),
(197,722,o),
(159,712,cs),
(133,705,o),
(24,561,o),
(55,570,cs),
(88,579,o),
(152,427,o),
(217,278,cs),
(279,134,o),
(342,-7,o),
(378,0,cs)
);
}
);
width = 527;
}
);
unicode = 120;
},
{
glyphname = y;
lastChange = "2024-01-12 07:07:25 +0000";
layers = (
{
guides = (
{
pos = (271,713);
}
);
layerId = m01;
shapes = (
{
closed = 1;
nodes = (
(581,751,o),
(466,708,o),
(422,628,cs),
(412,608,o),
(321,421,o),
(244,263,cs),
(187,145,o),
(137,43,o),
(137,42,cs),
(96,-42,o),
(218,13,o),
(255,90,cs),
(262,103,o),
(341,269,o),
(414,419,cs),
(473,539,o),
(526,649,o),
(536,666,cs)
);
},
{
closed = 1;
nodes = (
(277,330,o),
(391,458,o),
(341,434,cs),
(312,420,o),
(285,479,o),
(257,547,cs),
(223,630,o),
(187,726,o),
(143,711,cs),
(109,699,o),
(-13,569,o),
(29,583,cs),
(65,596,o),
(94,497,o),
(130,413,cs),
(159,346,o),
(192,289,o),
(235,310,cs)
);
}
);
width = 495;
}
);
unicode = 121;
},
{
glyphname = z;
lastChange = "2024-01-12 07:07:25 +0000";
layers = (
{
guides = (
{
pos = (199,713);
}
);
layerId = m01;
shapes = (
{
closed = 1;
nodes = (
(-5,123,o),
(-48,-45,o),
(3,-1,cs),
(47,37,o),
(111,49,o),
(173,43,cs),
(226,38,o),
(277,19,o),
(313,-8,cs),
(329,-21,o),
(391,148,o),
(375,160,cs),
(345,184,o),
(297,204,o),
(243,212,cs),
(174,221,o),
(96,210,o),
(35,157,cs)
);
},
{
closed = 1;
nodes = (
(107,736,o),
(42,569,o),
(57,550,cs),
(79,523,o),
(129,504,o),
(185,500,cs),
(253,494,o),
(330,509,o),
(379,552,cs),
(405,575,o),
(460,744,o),
(429,716,cs),
(392,683,o),
(325,669,o),
(262,670,cs),
(201,672,o),
(144,689,o),
(121,718,cs)
);
},
{
closed = 1;
nodes = (
(429,653,o),
(318,622,o),
(295,569,cs),
(239,436,o),
(37,213,o),
(-7,82,cs),
(-25,26,o),
(88,66,o),
(105,116,cs),
(135,207,o),
(333,430,o),
(405,597,cs)
);
}
);
width = 438;
}
);
unicode = 122;
},
{
glyphname = zero;
lastChange = "2024-01-12 07:19:51 +0000";
layers = (
{
layerId = m01;
shapes = (
{
closed = 1;
nodes = (
(469,514,o),
(454,625,o),
(405,680,cs),
(382,706,o),
(350,720,o),
(311,715,cs),
(177,700,o),
(55,497,o),
(21,309,cs),
(0,195,o),
(10,91,o),
(50,32,cs),
(74,-5,o),
(110,-24,o),
(156,-19,cs),
(289,-4,o),
(415,209,o),
(447,391,cs)
);
},
{
closed = 1;
nodes = (
(325,230,o),
(267,177,o),
(215,171,cs),
(145,163,o),
(101,240,o),
(122,355,cs),
(143,468,o),
(202,519,o),
(252,525,cs),
(321,533,o),
(366,459,o),
(345,345,cs)
);
}
);
width = 477;
}
);
unicode = 48;
},
{
glyphname = one;
lastChange = "2024-01-12 07:33:20 +0000";
layers = (
{
layerId = m01;
shapes = (
{
closed = 1;
nodes = (
(269,727,o),
(139,604,o),
(149,585,cs),
(166,554,o),
(167,549,o),
(162,491,cs),
(152,363,o),
(143,235,o),
(133,107,cs),
(128,40,o),
(142,21,o),
(171,1,cs),
(187,-10,o),
(314,117,o),
(297,129,cs),
(274,145,o),
(270,154,o),
(275,215,cs),
(284,343,o),
(293,471,o),
(304,599,cs),
(309,663,o),
(298,674,o),
(279,709,cs)
);
},
{
closed = 1;
nodes = (
(240,710,o),
(145,603,o),
(138,565,cs),
(124,493,o),
(82,414,o),
(32,374,cs),
(-12,338,o),
(74,344,o),
(114,376,cs),
(220,462,o),
(214,575,o),
(232,669,cs)
);
}
);
width = 365;
}
);
unicode = 49;
},
{
glyphname = two;
lastChange = "2024-01-12 07:32:30 +0000";
layers = (
{
layerId = m01;
shapes = (
{
closed = 1;
nodes = (
(17,97,o),
(71,68,o),
(116,141,cs),
(199,276,o),
(240,297,o),
(370,436,cs),
(481,554,o),
(456,663,o),
(385,703,cs),
(309,745,o),
(182,710,o),
(106,531,cs),
(63,431,o),
(98,361,o),
(144,469,cs),
(172,534,o),
(226,551,o),
(263,539,cs),
(302,527,o),
(321,479,o),
(264,418,cs),
(216,367,o),
(147,306,o),
(62,169,cs)
);
},
{
closed = 1;
nodes = (
(30,129,o),
(-20,-38,o),
(19,5,cs),
(42,30,o),
(126,78,o),
(213,76,cs),
(265,75,o),
(318,55,o),
(359,2,cs),
(383,-31,o),
(458,133,o),
(435,162,cs),
(399,210,o),
(355,233,o),
(308,242,cs),
(206,260,o),
(96,202,o),
(61,163,cs)
);
}
);
width = 476;
}
);
unicode = 50;
},
{
glyphname = three;
lastChange = "2024-01-12 07:32:50 +0000";
layers = (
{
layerId = m01;
shapes = (
{
closed = 1;
nodes = (
(412,565,o),
(469,736,o),
(432,711,cs),
(401,691,o),
(322,686,o),
(276,686,cs),
(221,686,o),
(173,697,o),
(140,713,cs),
(109,727,o),
(37,562,o),
(68,547,cs),
(107,529,o),
(159,516,o),
(216,516,cs),
(266,516,o),
(341,517,o),
(382,545,cs)
);
},
{
closed = 1;
nodes = (
(40,249,o),
(99,241,o),
(145,301,cs),
(171,334,o),
(267,352,o),
(317,310,cs),
(349,283,o),
(363,231,o),
(327,142,cs),
(302,81,o),
(414,204,o),
(435,256,cs),
(465,330,o),
(452,395,o),
(412,432,cs),
(348,491,o),
(217,478,o),
(87,309,cs)
);
},
{
closed = 1;
nodes = (
(445,267,o),
(458,375,o),
(418,296,cs),
(361,184,o),
(263,92,o),
(203,137,cs),
(183,151,o),
(167,181,o),
(158,231,cs),
(154,257,o),
(26,131,o),
(30,107,cs),
(39,54,o),
(62,18,o),
(93,0,cs),
(177,-50,o),
(321,24,o),
(410,198,cs)
);
},
{
closed = 1;
nodes = (
(446,601,o),
(364,616,o),
(291,550,cs),
(259,520,o),
(125,352,o),
(124,351,cs),
(69,283,o),
(183,302,o),
(234,365,cs),
(240,372,o),
(374,536,o),
(375,536,cs)
);
}
);
width = 481;
}
);
unicode = 51;
},
{
glyphname = four;
lastChange = "2024-01-12 07:31:23 +0000";
layers = (
{
layerId = m01;
shapes = (
{
closed = 1;
nodes = (
(68,382,o),
(11,212,o),
(21,212,cs),
(155,213,o),
(289,213,o),
(424,213,cs),
(436,213,o),
(496,383,o),
(484,383,cs),
(350,382,o),
(216,382,o),
(81,382,cs)
);
},
{
closed = 1;
nodes = (
(71,373,o),
(67,281,o),
(77,292,cs),
(159,381,o),
(240,470,o),
(321,559,cs),
(331,570,o),
(336,663,o),
(325,651,cs),
(243,562,o),
(162,473,o),
(81,384,cs)
);
},
{
closed = 1;
nodes = (
(391,726,o),
(261,603,o),
(271,584,cs),
(288,553,o),
(289,548,o),
(284,490,cs),
(274,362,o),
(265,234,o),
(255,106,cs),
(250,39,o),
(264,20,o),
(293,0,cs),
(309,-11,o),
(436,116,o),
(419,128,cs),
(396,144,o),
(392,153,o),
(397,214,cs),
(406,342,o),
(415,470,o),
(426,598,cs),
(431,662,o),
(420,673,o),
(401,708,cs)
);
}
);
width = 516;
}
);
unicode = 52;
},
{
glyphname = five;
lastChange = "2024-01-12 07:26:27 +0000";
layers = (
{
layerId = m01;
shapes = (
{
closed = 1;
nodes = (
(441,604,o),
(477,759,o),
(433,701,cs),
(412,674,o),
(349,659,o),
(307,659,cs),
(252,659,o),
(190,681,o),
(157,710,cs),
(127,738,o),
(78,576,o),
(78,572,cs),
(69,455,o),
(56,350,o),
(48,240,cs),
(44,194,o),
(137,257,o),
(140,302,cs),
(150,431,o),
(153,564,o),
(162,686,c),
(136,640,o),
(109,594,o),
(83,548,c),
(122,511,o),
(190,489,o),
(247,489,cs),
(301,489,o),
(350,486,o),
(401,553,cs)
);
},
{
closed = 1;
nodes = (
(19,205,o),
(83,203,o),
(127,263,cs),
(154,300,o),
(240,330,o),
(300,313,cs),
(352,298,o),
(384,247,o),
(340,133,cs),
(317,76,o),
(427,194,o),
(448,249,cs),
(485,343,o),
(455,415,o),
(392,440,cs),
(313,470,o),
(182,428,o),
(63,265,cs)
);
},
{
closed = 1;
nodes = (
(455,267,o),
(468,375,o),
(428,296,cs),
(376,194,o),
(290,109,o),
(230,128,cs),
(202,137,o),
(179,168,o),
(168,231,cs),
(164,257,o),
(36,131,o),
(40,107,cs),
(50,46,o),
(78,9,o),
(116,-7,cs),
(201,-43,o),
(335,33,o),
(420,198,cs)
);
}
);
width = 504;
}
);
unicode = 53;
},
{
glyphname = six;
lastChange = "2024-01-12 07:30:47 +0000";
layers = (
{
layerId = m01;
shapes = (
{
closed = 1;
nodes = (
(60,89,o),
(118,174,o),
(123,221,cs),
(128,273,o),
(219,313,o),
(272,278,cs),
(305,257,o),
(323,208,o),
(301,118,cs),
(289,72,o),
(393,207,o),
(403,248,cs),
(425,333,o),
(389,398,o),
(334,425,cs),
(240,470,o),
(91,405,o),
(65,139,cs)
);
},
{
closed = 1;
nodes = (
(424,301,o),
(340,244,o),
(316,177,cs),
(295,121,o),
(231,80,o),
(173,134,cs),
(122,182,o),
(128,258,o),
(155,337,cs),
(198,459,o),
(295,589,o),
(321,634,cs),
(354,691,o),
(259,659,o),
(227,604,cs),
(206,566,o),
(128,455,o),
(72,337,cs),
(14,215,o),
(-21,84,o),
(49,18,cs),
(86,-18,o),
(177,-39,o),
(264,27,cs),
(313,64,o),
(361,128,o),
(398,231,cs)
);
},
{
closed = 1;
nodes = (
(361,605,o),
(397,760,o),
(353,702,cs),
(341,687,o),
(311,680,o),
(279,682,cs),
(249,683,o),
(219,692,o),
(200,710,cs),
(174,736,o),
(100,573,o),
(126,548,cs),
(145,529,o),
(177,515,o),
(211,511,cs),
(251,508,o),
(294,518,o),
(321,554,cs)
);
}
);
width = 435;
}
);
unicode = 54;
},
{
glyphname = seven;
lastChange = "2024-01-12 07:31:09 +0000";
layers = (
{
layerId = m01;
shapes = (
{
closed = 1;
nodes = (
(473,754,o),
(357,707,o),
(316,625,cs),
(307,608,o),
(252,478,o),
(196,346,cs),
(132,195,o),
(66,39,o),
(66,38,cs),
(31,-45,o),
(154,18,o),
(186,94,cs),
(190,102,o),
(249,243,o),
(308,384,cs),
(365,519,o),
(423,654,o),
(430,669,cs)
);
},
{
closed = 1;
nodes = (
(371,616,o),
(437,746,o),
(373,691,cs),
(353,673,o),
(287,659,o),
(223,663,cs),
(175,666,o),
(128,679,o),
(101,710,cs),
(76,738,o),
(0,577,o),
(25,548,cs),
(57,512,o),
(103,497,o),
(153,499,cs),
(208,502,o),
(268,526,o),
(315,567,cs)
);
}
);
width = 399;
}
);
unicode = 55;
},
{
glyphname = eight;
lastChange = "2024-01-12 07:27:44 +0000";
layers = (
{
layerId = m01;
shapes = (
{
closed = 1;
nodes = (
(188,355,o),
(266,373,o),
(335,466,cs),
(415,578,o),
(423,651,o),
(395,688,cs),
(360,731,o),
(272,720,o),
(195,654,cs),
(125,595,o),
(90,522,o),
(167,588,cs),
(191,608,o),
(238,588,o),
(261,551,cs),
(278,523,o),
(283,487,o),
(257,452,cs)
);
},
{
closed = 1;
nodes = (
(205,664,o),
(80,552,o),
(62,510,cs),
(22,417,o),
(92,372,o),
(154,311,cs),
(161,304,o),
(283,426,o),
(276,433,cs),
(214,492,o),
(156,547,o),
(188,624,cs)
);
},
{
closed = 1;
nodes = (
(254,382,o),
(154,352,o),
(82,271,cs),
(10,190,o),
(-3,105,o),
(21,50,cs),
(51,-18,o),
(139,-42,o),
(243,39,cs),
(310,91,o),
(362,177,o),
(289,121,cs),
(237,80,o),
(193,109,o),
(170,157,cs),
(150,202,o),
(149,264,o),
(180,299,cs)
);
},
{
closed = 1;
nodes = (
(247,40,o),
(373,153,o),
(395,195,cs),
(423,250,o),
(420,288,o),
(402,319,cs),
(378,359,o),
(330,389,o),
(285,430,cs),
(277,436,o),
(156,315,o),
(163,308,cs),
(238,241,o),
(321,184,o),
(271,87,cs)
);
}
);
width = 446;
}
);
unicode = 56;
},
{
glyphname = nine;
lastChange = "2024-01-12 07:31:49 +0000";
layers = (
{
layerId = m01;
shapes = (
{
closed = 1;
nodes = (
(375,611,o),
(317,523,o),
(313,478,cs),
(309,430,o),
(258,397,o),
(212,403,cs),
(162,409,o),
(119,459,o),
(149,585,cs),
(159,627,o),
(56,497,o),
(45,453,cs),
(23,356,o),
(72,281,o),
(139,261,cs),
(228,236,o),
(348,309,o),
(371,560,cs)
);
},
{
closed = 1;
nodes = (
(24,396,o),
(109,458,o),
(132,522,cs),
(153,578,o),
(219,621,o),
(275,565,cs),
(395,442,o),
(169,137,o),
(127,65,cs),
(94,7,o),
(191,42,o),
(221,95,cs),
(265,173,o),
(529,550,o),
(399,681,cs),
(373,708,o),
(319,726,o),
(257,709,cs),
(186,690,o),
(106,623,o),
(50,468,cs)
);
},
{
closed = 1;
nodes = (
(86,111,o),
(39,-54,o),
(82,-7,cs),
(99,11,o),
(136,18,o),
(171,14,cs),
(197,10,o),
(222,2,o),
(238,-12,cs),
(266,-35,o),
(338,130,o),
(312,152,cs),
(292,169,o),
(259,180,o),
(224,183,cs),
(185,185,o),
(145,176,o),
(120,149,cs)
);
}
);
width = 445;
}
);
unicode = 57;
},
{
glyphname = "period-han";
lastChange = "2024-01-12 08:09:35 +0000";
layers = (
{
layerId = m01;
shapes = (
{
closed = 1;
nodes = (
(210,213,o),
(149,220,o),
(80,133,cs),
(1,34,o),
(-12,-43,o),
(8,-92,cs),
(30,-147,o),
(95,-164,o),
(153,-131,cs),
(203,-102,o),
(278,49,o),
(219,15,cs),
(175,-11,o),
(150,3,o),
(138,28,cs),
(122,60,o),
(126,109,o),
(136,121,cs)
);
},
{
closed = 1;
nodes = (
(136,-62,o),
(128,-159,o),
(197,-83,cs),
(347,81,o),
(352,176,o),
(309,217,cs),
(275,249,o),
(209,246,o),
(164,214,cs),
(104,172,o),
(29,43,o),
(100,94,cs),
(147,127,o),
(173,111,o),
(186,84,cs),
(201,54,o),
(201,9,o),
(199,7,cs)
);
}
);
width = 332;
}
);
unicode = 12290;
},
{
glyphname = period;
lastChange = "2024-01-12 08:09:35 +0000";
layers = (
{
layerId = m01;
shapes = (
{
closed = 1;
nodes = (
(42,165,o),
(-17,-4,o),
(5,1,cs),
(8,2,o),
(100,0,o),
(107,1,cs),
(127,5,o),
(188,175,o),
(165,171,cs),
(160,170,o),
(68,172,o),
(63,171,cs)
);
}
);
width = 170;
}
);
unicode = 46;
},
{
glyphname = comma;
lastChange = "2024-01-12 08:09:35 +0000";
layers = (
{
layerId = m01;
shapes = (
{
closed = 1;
nodes = (
(44,166,o),
(-17,-4,o),
(4,-4,cs),
(56,-4,o),
(65,-54,o),
(55,-96,cs),
(42,-153,o),
(124,-76,o),
(137,-22,cs),
(147,21,o),
(142,74,o),
(126,113,cs),
(113,144,o),
(92,166,o),
(64,166,cs)
);
}
);
width = 142;
}
);
unicode = 44;
},
{
glyphname = colon;
lastChange = "2024-01-12 08:48:21 +0000";
layers = (
{
layerId = m01;
shapes = (
{
closed = 1;
nodes = (
(100,469,o),
(40,298,o),
(66,314,cs),
(80,322,o),
(137,304,o),
(167,313,cs),
(188,320,o),
(249,490,o),
(225,483,cs),
(197,474,o),
(142,494,o),
(122,482,cs)
);
},
{
closed = 1;
nodes = (
(90,150,o),
(30,-21,o),
(56,-5,cs),
(70,3,o),
(127,-15,o),
(157,-6,cs),
(178,1,o),
(239,171,o),
(215,164,cs),
(187,155,o),
(132,175,o),
(112,163,cs)
);
}
);
width = 281;
}
);
unicode = 58;
},
{
glyphname = semicolon;
lastChange = "2024-01-12 08:48:31 +0000";
layers = (
{
layerId = m01;
shapes = (
{
closed = 1;
nodes = (
(90,469,o),
(30,298,o),
(56,314,cs),
(70,322,o),
(127,304,o),
(157,313,cs),
(178,320,o),
(239,490,o),
(215,483,cs),
(187,474,o),
(132,494,o),
(112,482,cs)
);
},
{
closed = 1;
nodes = (
(101,166,o),
(40,-4,o),
(61,-4,cs),
(113,-4,o),
(122,-54,o),
(112,-96,cs),
(99,-153,o),
(181,-76,o),
(194,-22,cs),
(204,24,o),
(199,82,o),
(179,121,cs),
(166,148,o),
(146,166,o),
(121,166,cs)
);
}
);
width = 271;
}
);
unicode = 59;
},
{
glyphname = ellipsis;
lastChange = "2024-01-12 08:46:35 +0000";
layers = (
{
layerId = m01;
shapes = (
{
closed = 1;
nodes = (
(47,165,o),
(-12,-4,o),
(10,1,cs),
(13,2,o),
(105,0,o),
(112,1,cs),
(132,5,o),
(193,175,o),
(170,171,cs),
(165,170,o),
(73,172,o),
(68,171,cs)
);
},
{
closed = 1;
nodes = (
(470,165,o),
(411,-4,o),
(433,1,cs),
(436,2,o),
(528,0,o),
(535,1,cs),
(555,5,o),
(616,175,o),
(593,171,cs),
(588,170,o),
(496,172,o),
(491,171,cs)
);
},
{
closed = 1;
nodes = (
(258,165,o),
(199,-4,o),
(221,1,cs),
(224,2,o),
(316,0,o),
(323,1,cs),
(343,5,o),
(404,175,o),
(381,171,cs),
(376,170,o),
(284,172,o),
(279,171,cs)
);
}
);
width = 608;
}
);
unicode = 8230;
},
{
glyphname = exclam;
lastChange = "2024-01-12 08:46:06 +0000";
layers = (
{
layerId = m01;
shapes = (
{
closed = 1;
nodes = (
(204,757,o),
(72,629,o),
(72,601,cs),
(72,592,o),
(57,233,o),
(57,227,cs),
(55,197,o),
(188,325,o),
(189,353,cs),
(189,353,o),
(204,721,o),
(204,727,cs)
);
},
{
closed = 1;
nodes = (
(46,136,o),
(39,-41,o),
(72,-8,cs),
(74,-7,o),
(166,70,o),
(168,71,cs),
(197,86,o),
(209,265,o),
(176,249,cs),
(171,246,o),
(77,167,o),
(74,164,cs)
);
}
);
width = 254;
}
);
unicode = 33;
},
{
glyphname = exclamdown;
lastChange = "2024-01-12 08:46:06 +0000";
layers = (
{
layerId = m01;
shapes = (
{
closed = 1;
nodes = (
(50,-24,o),
(182,104,o),
(182,132,cs),
(182,141,o),
(197,500,o),
(197,506,cs),
(199,536,o),
(66,408,o),
(65,380,cs),
(65,380,o),
(50,12,o),
(50,6,cs)
);
},
{
closed = 1;
nodes = (
(208,597,o),
(215,774,o),
(182,741,cs),
(180,740,o),
(88,663,o),
(86,662,cs),
(57,647,o),
(45,468,o),
(78,484,cs),
(83,487,o),
(177,566,o),
(180,569,cs)
);
}
);
width = 254;
}
);
unicode = 161;
},
{
glyphname = question;
lastChange = "2024-01-12 08:46:06 +0000";
layers = (
{
layerId = m01;
shapes = (
{
closed = 1;
nodes = (
(196,365,o),
(259,362,o),
(334,457,cs),
(435,588,o),
(442,666,o),
(406,699,cs),
(366,735,o),
(274,717,o),
(201,654,cs),
(131,595,o),
(96,522,o),
(173,588,cs),
(201,611,o),
(250,594,o),
(274,559,cs),
(293,532,o),
(298,496,o),
(270,461,cs)
);
},
{
closed = 1;
nodes = (
(190,655,o),
(62,533,o),
(53,502,cs),
(40,454,o),
(69,416,o),
(85,399,cs),
(92,392,o),
(214,514,o),
(207,521,cs),
(189,538,o),
(170,580,o),
(181,621,cs)
);
},
{
closed = 1;
nodes = (
(309,504,o),
(177,376,o),
(177,348,cs),
(177,347,o),
(162,221,o),
(162,219,cs),
(158,185,o),
(291,313,o),
(294,343,cs),
(294,343,o),
(309,471,o),
(309,474,cs)
);
},
{
closed = 1;
nodes = (
(287,258,o),
(153,135,o),
(153,94,cs),
(153,93,o),
(153,10,o),
(153,10,cs),
(153,-34,o),
(287,92,o),
(287,130,cs),
(287,130,o),
(287,213,o),
(287,214,cs)
);
}
);
width = 476;
}
);
unicode = 63;
},
{
glyphname = questiondown;
lastChange = "2024-01-12 08:46:17 +0000";
layers = (
{
layerId = m01;
shapes = (
{
closed = 1;
nodes = (
(260,333,o),
(197,336,o),
(122,241,cs),
(21,110,o),
(14,32,o),
(50,-1,cs),
(90,-37,o),
(182,-19,o),
(255,44,cs),
(325,103,o),
(360,176,o),
(283,110,cs),
(255,87,o),
(206,104,o),
(182,139,cs),
(163,166,o),
(158,202,o),
(186,237,cs)
);
},
{
closed = 1;
nodes = (
(266,43,o),
(394,165,o),
(403,197,cs),
(416,244,o),
(387,282,o),
(371,299,cs),
(364,306,o),
(242,184,o),
(249,177,cs),
(267,160,o),
(286,118,o),
(275,77,cs)
);
},
{
closed = 1;
nodes = (
(147,194,o),
(279,322,o),
(279,350,cs),
(279,351,o),
(294,477,o),
(294,479,cs),
(298,513,o),
(165,385,o),
(162,355,cs),
(162,355,o),
(147,227,o),
(147,224,cs)
);
},
{
closed = 1;
nodes = (
(169,440,o),
(303,563,o),
(303,604,cs),
(303,605,o),
(303,688,o),
(303,688,cs),
(303,732,o),
(169,606,o),
(169,568,cs),
(169,568,o),
(169,485,o),
(169,484,cs)
);
}
);
width = 456;
}
);
unicode = 191;
},
{
glyphname = periodcentered;
lastChange = "2024-01-12 08:09:35 +0000";
layers = (
{
layerId = m01;
shapes = (
{
closed = 1;
nodes = (
(42,375,o),
(-17,206,o),
(5,211,cs),
(8,212,o),
(100,210,o),
(107,211,cs),
(127,215,o),
(188,385,o),
(165,381,cs),
(160,380,o),
(68,382,o),
(63,381,cs)
);
}
);
width = 170;
}
);
unicode = 183;
},
{
glyphname = numbersign;
lastChange = "2024-01-12 08:47:10 +0000";
layers = (
{
layerId = m01;
shapes = (
{
closed = 1;
nodes = (
(472,666,o),
(356,619,o),
(315,537,cs),
(296,500,o),
(66,-48,o),
(65,-50,cs),
(30,-133,o),
(153,-70,o),
(185,6,cs),
(192,23,o),
(414,551,o),
(429,581,cs)
);
},
{
closed = 1;
nodes = (
(761,666,o),
(645,619,o),
(604,537,cs),
(585,500,o),
(355,-48,o),
(354,-50,cs),
(319,-133,o),
(442,-70,o),
(474,6,cs),
(481,23,o),
(703,551,o),
(718,581,cs)
);
},
{
closed = 1;
nodes = (
(198,475,o),
(137,305,o),
(158,305,cs),
(331,306,o),
(503,306,o),
(676,306,cs),
(695,306,o),
(757,476,o),
(736,476,cs),
(563,475,o),
(391,475,o),
(218,475,cs)
);
},
{
closed = 1;
nodes = (
(94,220,o),
(33,50,o),
(54,50,cs),
(227,51,o),
(399,51,o),
(572,51,cs),
(591,51,o),
(653,221,o),
(632,221,cs),
(459,220,o),
(287,220,o),
(114,220,cs)
);
}
);
width = 790;
}
);
unicode = 35;
},
{
glyphname = slash;
lastChange = "2024-01-12 08:47:10 +0000";
layers = (
{
layerId = m01;
shapes = (
{
closed = 1;
nodes = (
(495,785,o),
(379,738,o),
(338,656,cs),
(329,638,o),
(270,499,o),
(208,354,cs),
(134,178,o),
(56,-8,o),
(56,-9,cs),
(21,-92,o),
(144,-29,o),
(176,47,cs),
(182,62,o),
(253,231,o),
(321,394,cs),
(382,539,o),
(441,678,o),
(452,700,cs)
);
}
);
width = 511;
}
);
unicode = 47;
},
{
glyphname = colon.full;
lastChange = "2024-01-12 08:47:10 +0000";
layers = (
{
layerId = m01;
shapes = (
{
closed = 1;
nodes = (
(102,469,o),
(37,312,o),
(68,314,cs),
(88,315,o),
(139,313,o),
(169,313,cs),
(191,314,o),
(252,482,o),
(227,483,cs),
(199,483,o),
(144,494,o),
(124,482,cs)
);
},
{
closed = 1;
nodes = (
(88,163,o),
(28,-4,o),
(58,-5,cs),
(93,-6,o),
(129,-6,o),
(159,-6,cs),
(181,-5,o),
(242,163,o),
(217,164,cs),
(189,164,o),
(144,163,o),
(114,163,cs)
);
}
);
width = 283;
}
);
unicode = 65306;
},
{
glyphname = comma.full;
lastChange = "2024-01-12 08:47:10 +0000";
layers = (
{
layerId = m01;
shapes = (
{
closed = 1;
nodes = (
(94,166,o),
(33,-4,o),
(54,-4,cs),
(106,-4,o),
(115,-54,o),
(105,-96,cs),
(92,-153,o),
(174,-76,o),
(187,-22,cs),
(197,21,o),
(192,74,o),
(176,113,cs),
(163,144,o),
(142,166,o),
(114,166,cs)
);
}
);
width = 242;
}
);
unicode = 65292;
},
{
glyphname = exclam.full;
lastChange = "2024-01-12 08:47:10 +0000";
layers = (
{
layerId = m01;
shapes = (
{
closed = 1;
nodes = (
(204,757,o),
(72,629,o),
(72,601,cs),
(72,592,o),
(57,233,o),
(57,227,cs),
(55,197,o),
(188,325,o),
(189,353,cs),
(189,353,o),
(204,721,o),
(204,727,cs)
);
},
{
closed = 1;
nodes = (
(46,136,o),
(39,-41,o),
(72,-8,cs),
(74,-7,o),
(166,70,o),
(168,71,cs),
(197,86,o),
(209,265,o),
(176,249,cs),
(171,246,o),
(77,167,o),
(74,164,cs)
);
}
);
width = 254;
}
);
unicode = 65281;
},
{
glyphname = numbersign.full;
lastChange = "2024-01-12 08:47:10 +0000";
layers = (
{
layerId = m01;
shapes = (
{
closed = 1;
nodes = (
(472,666,o),
(356,619,o),
(315,537,cs),
(296,500,o),
(66,-48,o),
(65,-50,cs),
(30,-133,o),
(153,-70,o),
(185,6,cs),
(192,23,o),
(414,551,o),
(429,581,cs)
);
},
{
closed = 1;
nodes = (
(761,666,o),
(645,619,o),
(604,537,cs),
(585,500,o),
(355,-48,o),
(354,-50,cs),
(319,-133,o),
(442,-70,o),
(474,6,cs),
(481,23,o),
(703,551,o),
(718,581,cs)
);
},
{
closed = 1;
nodes = (
(198,475,o),
(137,305,o),
(158,305,cs),
(331,306,o),
(503,306,o),
(676,306,cs),
(695,306,o),
(757,476,o),
(736,476,cs),
(563,475,o),
(391,475,o),
(218,475,cs)
);
},
{
closed = 1;
nodes = (
(94,220,o),
(33,50,o),
(54,50,cs),
(227,51,o),
(399,51,o),
(572,51,cs),
(591,51,o),
(653,221,o),
(632,221,cs),
(459,220,o),
(287,220,o),
(114,220,cs)
);
}
);
width = 790;
}
);
unicode = 65283;
},
{
glyphname = question.full;
lastChange = "2024-01-12 08:47:10 +0000";
layers = (
{
layerId = m01;
shapes = (
{
closed = 1;
nodes = (
(196,365,o),
(259,362,o),
(334,457,cs),
(435,588,o),
(442,666,o),
(406,699,cs),
(366,735,o),
(274,717,o),
(201,654,cs),
(131,595,o),
(96,522,o),
(173,588,cs),
(201,611,o),
(250,594,o),
(274,559,cs),
(293,532,o),
(298,496,o),
(270,461,cs)
);
},
{
closed = 1;
nodes = (
(190,655,o),
(62,533,o),
(53,502,cs),
(40,454,o),
(69,416,o),
(85,399,cs),
(92,392,o),
(214,514,o),
(207,521,cs),
(189,538,o),
(170,580,o),
(181,621,cs)
);
},
{
closed = 1;
nodes = (
(309,504,o),
(177,376,o),
(177,348,cs),
(177,347,o),
(162,221,o),
(162,219,cs),
(158,185,o),
(291,313,o),
(294,343,cs),
(294,343,o),
(309,471,o),
(309,474,cs)
);
},
{
closed = 1;
nodes = (
(287,258,o),
(153,135,o),
(153,94,cs),
(153,93,o),
(153,10,o),
(153,10,cs),
(153,-34,o),
(287,92,o),
(287,130,cs),
(287,130,o),
(287,213,o),
(287,214,cs)
);
}
);
width = 476;
}
);
unicode = 65311;
},
{
glyphname = hyphen;
lastChange = "2024-01-12 08:35:00 +0000";
layers = (
{
layerId = m01;
shapes = (
{
closed = 1;
nodes = (
(93,349,o),
(33,179,o),
(54,179,cs),
(155,180,o),
(256,180,o),
(357,180,cs),
(377,180,o),
(439,350,o),
(417,350,cs),
(316,349,o),
(215,349,o),
(114,349,cs)
);
}
);
width = 472;
}
);
unicode = 45;
},
{
glyphname = endash;
lastChange = "2024-01-12 08:35:53 +0000";
layers = (
{
layerId = m01;
shapes = (
{
closed = 1;
nodes = (
(94,384,o),
(33,214,o),
(54,214,cs),
(233,214,o),
(411,213,o),
(590,212,cs),
(610,212,o),
(671,382,o),
(650,382,cs),
(471,382,o),
(293,383,o),
(114,384,cs)
);
}
);
width = 704;
}
);
unicode = 8211;
},
{
glyphname = emdash;
lastChange = "2024-01-12 08:35:53 +0000";
layers = (
{
layerId = m01;
shapes = (
{
closed = 1;
nodes = (
(94,384,o),
(33,214,o),
(54,214,cs),
(260,214,o),
(465,213,o),
(671,212,cs),
(691,212,o),
(752,382,o),
(731,382,cs),
(525,382,o),
(320,383,o),
(114,384,cs)
);
}
);
width = 785;
}
);
unicode = 8212;
},
{
glyphname = underscore;
lastChange = "2024-01-12 08:35:53 +0000";
layers = (
{
layerId = m01;
shapes = (
{
closed = 1;
nodes = (
(94,-21,o),
(33,-191,o),
(54,-191,cs),
(233,-191,o),
(411,-192,o),
(590,-193,cs),
(610,-193,o),
(671,-23,o),
(650,-23,cs),
(471,-23,o),
(293,-22,o),
(114,-21,cs)
);
}
);
width = 704;
}
);
unicode = 95;
},
{
glyphname = wavedash;
lastChange = "2024-01-12 08:35:53 +0000";
layers = (
{
layerId = m01;
shapes = (
{
closed = 1;
nodes = (
(695,189,o),
(753,359,o),
(721,346,cs),
(602,299,o),
(538,286,o),
(419,348,cs),
(330,395,o),
(224,397,o),
(111,327,cs),
(83,310,o),
(25,138,o),
(61,161,cs),
(166,225,o),
(271,225,o),
(357,180,cs),
(477,116,o),
(546,129,o),
(667,178,cs)
);
}
);
width = 780;
}
);
unicode = 12316;
},
{
glyphname = hyphen.full;
lastChange = "2024-01-12 08:36:04 +0000";
layers = (
{
layerId = m01;
shapes = (
{
closed = 1;
nodes = (
(93,349,o),
(33,179,o),
(54,179,cs),
(155,180,o),
(256,180,o),
(357,180,cs),
(377,180,o),
(439,350,o),
(417,350,cs),
(316,349,o),
(215,349,o),
(114,349,cs)
);
}
);
width = 472;
}
);
unicode = 65293;
},
{
glyphname = parenleft;
lastChange = "2024-01-12 08:39:08 +0000";
layers = (
{
layerId = m01;
shapes = (
{
closed = 1;
nodes = (
(373,913,o),
(223,840,o),
(195,790,cs),
(122,661,o),
(71,477,o),
(55,296,cs),
(38,99,o),
(63,-93,o),
(149,-205,cs),
(168,-230,o),
(295,-102,o),
(277,-79,cs),
(210,9,o),
(189,163,o),
(200,327,cs),
(212,520,o),
(268,727,o),
(343,860,cs)
);
}
);
width = 397;
}
);
unicode = 40;
},
{
glyphname = parenright;
lastChange = "2024-01-12 08:39:08 +0000";
layers = (
{
layerId = m01;
shapes = (
{
closed = 1;
nodes = (
(24,-230,o),
(176,-154,o),
(202,-107,cs),
(287,43,o),
(343,268,o),
(347,475,cs),
(350,640,o),
(321,793,o),
(248,888,cs),
(230,912,o),
(101,786,o),
(120,762,cs),
(184,678,o),
(206,533,o),
(199,376,cs),
(189,178,o),
(132,-39,o),
(54,-177,cs)
);
}
);
width = 397;
}
);
unicode = 41;
},
{
glyphname = bracketleft;
lastChange = "2024-01-12 08:34:05 +0000";
layers = (
{
layerId = m01;
shapes = (
{
closed = 1;
nodes = (
(356,932,o),
(226,843,o),
(212,777,cs),
(208,755,o),
(182,566,o),
(154,363,cs),
(119,107,o),
(81,-171,o),
(81,-172,cs),
(72,-240,o),
(202,-147,o),
(211,-82,cs),
(214,-61,o),
(246,183,o),
(278,418,cs),
(306,625,o),
(334,826,o),
(342,861,cs)
);
},
{
closed = 1;
nodes = (
(248,890,o),
(188,720,o),
(209,720,cs),
(292,721,o),
(374,721,o),
(456,721,cs),
(476,721,o),
(538,891,o),
(516,891,cs),
(433,890,o),
(351,890,o),
(269,890,cs)
);
},
{
closed = 1;
nodes = (
(130,-26,o),
(70,-196,o),
(91,-196,cs),
(171,-195,o),
(250,-195,o),
(329,-195,cs),
(349,-195,o),
(411,-25,o),
(389,-25,cs),
(309,-26,o),
(230,-26,o),
(151,-26,cs)
);
}
);
width = 531;
}
);
unicode = 91;
},
{
glyphname = bracketright;
lastChange = "2024-01-12 08:34:13 +0000";
layers = (
{
layerId = m01;
shapes = (
{
closed = 1;
nodes = (
(171,890,o),
(111,720,o),
(132,720,cs),
(215,721,o),
(297,721,o),
(379,721,cs),
(399,721,o),
(461,891,o),
(439,891,cs),
(356,890,o),
(274,890,o),
(192,890,cs)
);
},
{
closed = 1;
nodes = (
(53,-26,o),
(-7,-196,o),
(14,-196,cs),
(94,-195,o),
(173,-195,o),
(252,-195,cs),
(272,-195,o),
(334,-25,o),
(312,-25,cs),
(232,-26,o),
(153,-26,o),
(74,-26,cs)
);
},
{
closed = 1;
nodes = (
(456,932,o),
(326,843,o),
(312,777,cs),
(302,728,o),
(182,-167,o),
(182,-168,cs),
(173,-236,o),
(303,-143,o),
(312,-78,cs),
(317,-39,o),
(426,787,o),
(442,861,cs)
);
}
);
width = 524;
}
);
unicode = 93;
},
{
glyphname = anglebracketleft;
lastChange = "2024-01-12 08:36:50 +0000";
layers = (
{
layerId = m01;
shapes = (
{
closed = 1;
nodes = (
(468,848,o),
(338,806,o),
(305,747,cs),
(230,616,o),
(156,486,o),
(82,355,cs),
(45,290,o),
(176,337,o),
(208,393,cs),
(283,524,o),
(357,654,o),
(431,785,cs)
);
},
{
closed = 1;
nodes = (
(201,456,o),
(57,365,o),
(77,329,cs),
(152,199,o),
(226,69,o),
(300,-62,cs),
(320,-96,o),
(464,-6,o),
(444,30,cs),
(369,160,o),
(295,291,o),
(221,421,cs)
);
}
);
width = 520;
}
);
unicode = 12296;
},
{
glyphname = anglebracketright;
lastChange = "2024-01-12 08:38:40 +0000";
layers = (
{
layerId = m01;
shapes = (
{
closed = 1;
nodes = (
(52,-103,o),
(183,-56,o),
(215,0,cs),
(290,131,o),
(364,261,o),
(438,392,cs),
(475,455,o),
(345,413,o),
(312,354,cs),
(237,223,o),
(163,93,o),
(89,-38,cs)
);
},
{
closed = 1;
nodes = (
(319,292,o),
(463,382,o),
(443,418,cs),
(368,548,o),
(294,679,o),
(220,809,cs),
(200,844,o),
(56,753,o),
(76,717,cs),
(151,587,o),
(225,457,o),
(299,326,cs)
);
}
);
width = 520;
}
);
unicode = 12297;
},
{
glyphname = quotedblbase;
lastChange = "2024-01-12 08:09:35 +0000";
layers = (
{
layerId = m01;
shapes = (
{
closed = 1;
nodes = (
(265.058,165.725,o),
(204.392,-3.725,o),
(224.998,-3.725,cs),
(276.733,-3.725,o),
(286.335,-54.266,o),
(276.449,-95.928,cs),
(262.854,-153.223,o),
(344.722,-76.137,o),
(357.551,-22.072,cs),
(368,21,o),
(363,74,o),
(347,113,cs),
(334,144,o),
(313,166,o),
(285.002,165.725,cs)
);
},
{
ref = comma;
}
);
width = 363;
}
);
unicode = 8222;
},
{
glyphname = guilsinglleft;
lastChange = "2024-01-12 08:40:08 +0000";
layers = (
{
layerId = m01;
shapes = (
{
closed = 1;
nodes = (
(391,520,o),
(288,514,o),
(228,447,cs),
(175,388,o),
(122,329,o),
(69,269,cs),
(9,202,o),
(116,212,o),
(173,277,cs),
(226,336,o),
(279,395,o),
(332,455,cs)
);
},
{
closed = 1;
nodes = (
(169,349,o),
(25,257,o),
(54,225,cs),
(106,166,o),
(159,107,o),
(212,48,cs),
(238,19,o),
(380,112,o),
(352,144,cs),
(300,203,o),
(247,262,o),
(194,321,cs)
);
}
);
width = 406;
}
);
unicode = 8249;
},
{
glyphname = guilsinglright;
lastChange = "2024-01-12 08:40:08 +0000";
layers = (
{
layerId = m01;
shapes = (
{
closed = 1;
nodes = (
(14,25,o),
(121,35,o),
(178,100,cs),
(231,159,o),
(284,218,o),
(337,278,cs),
(396,343,o),
(293,337,o),
(233,270,cs),
(180,211,o),
(127,152,o),
(74,92,cs)
);
},
{
closed = 1;
nodes = (
(238,197,o),
(380,290,o),
(352,322,cs),
(300,381,o),
(247,440,o),
(194,499,cs),
(169,527,o),
(25,435,o),
(54,403,cs),
(106,344,o),
(159,285,o),
(212,226,cs)
);
}
);
width = 406;
}
);
unicode = 8250;
},
{
glyphname = baht;
lastChange = "2024-01-12 08:43:40 +0000";
layers = (
{
layerId = m01;
shapes = (
{
closed = 1;
nodes = (
(47,230,o),
(53,104,o),
(75,173,cs),
(102,258,o),
(182,305,o),
(251,307,cs),
(275,308,o),
(298,303,o),
(316,292,cs),
(357,268,o),
(377,216,o),
(346,133,cs),
(324,76,o),
(434,196,o),
(454,249,cs),
(481,320,o),
(471,374,o),
(441,411,cs),
(406,452,o),
(344,471,o),
(279,464,cs),
(191,454,o),
(99,397,o),
(65,289,cs)
);
},
{
closed = 1;
nodes = (
(207,398,o),
(171,290,o),
(250,336,cs),
(389,418,o),
(465,492,o),
(498,554,cs),
(535,622,o),
(519,674,o),
(475,702,cs),
(384,761,o),
(177,716,o),
(89,496,cs),
(47,392,o),
(114,341,o),
(159,452,cs),
(195,542,o),
(336,582,o),
(382,563,cs),
(412,550,o),
(399,510,o),
(278,440,cs)
);
},
{
closed = 1;
nodes = (
(176,507,o),
(100,531,o),
(85,479,cs),
(62,393,o),
(32,221,o),
(32,145,cs),
(32,92,o),
(118,99,o),
(118,153,cs),
(118,211,o),
(140,377,o),
(163,459,cs)
);
},
{
closed = 1;
nodes = (
(481,334,o),
(456,354,o),
(422,257,cs),
(391,172,o),
(293,140,o),
(220,153,cs),
(153,165,o),
(106,214,o),
(149,295,cs),
(187,368,o),
(90,277,o),
(51,203,cs),
(-8,92,o),
(64,-5,o),
(166,-13,cs),
(259,-21,o),
(377,44,o),
(446,237,cs)
);
},
{
closed = 1;
nodes = (
(95,-109,o),
(180,-74,o),
(203,-20,cs),
(243,69,o),
(373,786,o),
(374,789,cs),
(383,839,o),
(293,784,o),
(284,737,cs),
(280,711,o),
(157,31,o),
(121,-52,cs)
);
}
);
width = 547;
}
);
metricLeft = b;
metricRight = b;
unicode = 3647;
},
{
glyphname = at;
lastChange = "2024-01-12 08:34:30 +0000";
layers = (
{
layerId = m01;
shapes = (
{
closed = 1;
nodes = (
(475,-29,o),
(615,117,o),
(588,123,cs),
(567,129,o),
(577,208,o),
(588,377,cs),
(592,427,o),
(595,449,o),
(601,513,cs),
(607,584,o),
(555,755,o),
(357,499,cs),
(291,414,o),
(337,409,o),
(405,497,cs),
(408,500,o),
(465,489,o),
(455,379,cs),
(449,313,o),
(447,293,o),
(444,241,cs),
(431,58,o),
(417,-15,o),
(452,-23,cs)
);
},
{
closed = 1;
nodes = (
(452,596,o),
(356,517,o),
(323,452,cs),
(312,430,o),
(296,388,o),
(290,347,cs),
(277,259,o),
(263,120,o),
(247,-3,cs),
(240,-55,o),
(332,13,o),
(337,57,cs),
(355,190,o),
(370,335,o),
(384,429,cs),
(390,472,o),
(414,520,o),
(417,526,cs)
);
},
{
closed = 1;
nodes = (
(615,207,o),
(734,346,o),
(674,345,cs),
(572,345,o),
(471,345,o),
(368,344,cs),
(238,344,o),
(151,315,o),
(185,492,cs),
(209,618,o),
(339,695,o),
(433,696,cs),
(480,697,o),
(527,700,o),
(574,701,cs),
(669,703,o),
(755,600,o),
(738,435,cs),
(725,315,o),
(716,198,o),
(704,80,cs),
(691,-36,o),
(616,-84,o),
(479,-84,cs),
(372,-84,o),
(265,-85,o),
(159,-85,cs),
(102,-85,o),
(-12,-227,o),
(57,-227,cs),
(164,-226,o),
(271,-226,o),
(377,-226,cs),
(489,-226,o),
(808,-71,o),
(836,202,cs),
(848,313,o),
(863,426,o),
(874,535,cs),
(891,698,o),
(807,842,o),
(682,839,cs),
(632,838,o),
(582,839,o),
(533,838,cs),
(341,834,o),
(126,586,o),
(99,448,cs),
(59,237,o),
(123,205,o),
(260,206,cs),
(361,206,o),
(464,206,o),
(566,207,cs)
);
}
);
width = 911;
}
);
unicode = 64;
},
{
glyphname = ampersand;
lastChange = "2024-01-12 08:43:19 +0000";
layers = (
{
layerId = m01;
shapes = (
{
closed = 1;
nodes = (
(267,355,o),
(345,373,o),
(414,466,cs),
(498,583,o),
(503,659,o),
(469,693,cs),
(432,730,o),
(348,717,o),
(274,654,cs),
(204,595,o),
(169,522,o),
(246,588,cs),
(269,607,o),
(312,590,o),
(336,556,cs),
(357,529,o),
(364,490,o),
(336,452,cs)
);
},
{
closed = 1;
nodes = (
(299,673,o),
(179,572,o),
(146,519,cs),
(97,441,o),
(147,408,o),
(209,323,cs),
(269,241,o),
(463,-29,o),
(516,-14,cs),
(547,-5,o),
(670,124,o),
(634,114,cs),
(608,106,o),
(414,330,o),
(361,403,cs),
(297,491,o),
(239,579,o),
(262,615,cs)
);
},
{
closed = 1;
nodes = (
(338,369,o),
(316,414,o),
(221,336,cs),
(69,210,o),
(36,93,o),
(75,31,cs),
(133,-62,o),
(352,-30,o),
(567,281,cs),
(621,361,o),
(548,350,o),
(491,269,cs),
(381,108,o),
(260,108,o),
(215,159,cs),
(186,191,o),
(187,245,o),
(243,290,cs)
);
}
);
width = 716;
}
);
unicode = 38;
},
{
glyphname = copyright;
lastChange = "2024-01-12 08:43:06 +0000";
layers = (
{
layerId = m01;
shapes = (
{
closed = 1;
nodes = (
(565,503,o),
(568,579,o),
(486,501,cs),
(309,331,o),
(286,183,o),
(338,101,cs),
(389,20,o),
(515,5,o),
(638,98,cs),
(702,147,o),
(772,306,o),
(698,250,cs),
(586,165,o),
(516,187,o),
(482,241,cs),
(445,299,o),
(449,392,o),
(486,427,cs)
);
},
{
closed = 1;
nodes = (
(655,375,o),
(783,503,o),
(776,522,cs),
(760,573,o),
(676,645,o),
(573,571,cs),
(522,536,o),
(434,395,o),
(495,439,cs),
(558,483,o),
(631,450,o),
(648,398,cs)
);
},
{
closed = 1;
nodes = (
(612,-162,o),
(1001,145,o),
(1057,403,cs),
(1083,520,o),
(1063,622,o),
(1010,696,cs),
(948,782,o),
(842,830,o),
(710,819,cs),
(419,793,o),
(108,484,o),
(56,246,cs),
(35,151,o),
(46,64,o),
(81,-6,cs),
(138,-122,o),
(261,-192,o),
(408,-180,cs)
);
},
{
closed = 1;
nodes = (
(375,-58,o),
(276,-5,o),
(228,87,cs),
(194,151,o),
(186,234,o),
(206,328,cs),
(259,568,o),
(420,688,o),
(598,703,cs),
(727,715,o),
(828,661,o),
(880,570,cs),
(918,503,o),
(930,417,o),
(909,319,cs),
(858,90,o),
(690,-31,o),
(512,-46,cs)
);
}
);
width = 1113;
}
);
unicode = 169;
},
{
glyphname = degree;
lastChange = "2024-01-12 08:45:49 +0000";
layers = (
{
layerId = m01;
shapes = (
{
closed = 1;
nodes = (
(260,687,o),
(199,694,o),
(130,607,cs),
(40,494,o),
(36,409,o),
(68,363,cs),
(97,323,o),
(153,314,o),
(203,343,cs),
(253,372,o),
(328,523,o),
(269,489,cs),
(222,462,o),
(197,479,o),
(185,507,cs),
(173,539,o),
(177,583,o),
(186,595,cs)
);
},
{
closed = 1;
nodes = (
(186,412,o),
(178,315,o),
(247,391,cs),
(371,527,o),
(396,615,o),
(377,664,cs),
(354,723,o),
(268,727,o),
(214,688,cs),
(154,646,o),
(79,517,o),
(150,568,cs),
(196,600,o),
(222,586,o),
(235,560,cs),
(251,530,o),
(251,483,o),
(249,481,cs)
);
}
);
width = 433;
}
);
unicode = 176;
},
{
glyphname = bar;
lastChange = "2024-01-12 08:45:49 +0000";
layers = (
{
layerId = m01;
shapes = (
{
closed = 1;
nodes = (
(240,796,o),
(97,659,o),
(94,627,cs),
(92,617,o),
(50,-6,o),
(50,-6,cs),
(47,-36,o),
(190,98,o),
(192,130,cs),
(193,139,o),
(235,745,o),
(236,761,cs)
);
}
);
width = 286;
}
);
unicode = 124;
},
{
glyphname = brokenbar;
lastChange = "2024-01-12 08:45:49 +0000";
layers = (
{
layerId = m01;
shapes = (
{
closed = 1;
nodes = (
(234,749,o),
(93,620,o),
(79,579,cs),
(76,571,o),
(65,351,o),
(65,350,cs),
(63,320,o),
(206,454,o),
(207,486,cs),
(208,489,o),
(220,707,o),
(221,709,cs)
);
},
{
closed = 1;
nodes = (
(219,397,o),
(78,268,o),
(64,227,cs),
(61,219,o),
(50,-1,o),
(50,-2,cs),
(48,-32,o),
(191,102,o),
(192,134,cs),
(193,137,o),
(205,355,o),
(206,357,cs)
);
}
);
width = 272;
}
);
unicode = 166;
},
{
glyphname = dagger;
lastChange = "2024-01-12 08:45:49 +0000";
layers = (
{
layerId = m01;
shapes = (
{
closed = 1;
nodes = (
(94,585,o),
(33,415,o),
(54,415,cs),
(182,416,o),
(311,416,o),
(439,416,cs),
(458,416,o),
(520,586,o),
(499,586,cs),
(371,585,o),
(242,585,o),
(114,585,cs)
);
},
{
closed = 1;
nodes = (
(369,796,o),
(226,658,o),
(222,627,cs),
(220,619,o),
(189,135,o),
(189,135,cs),
(186,105,o),
(329,239,o),
(331,271,cs),
(332,278,o),
(363,748,o),
(364,761,cs)
);
}
);
width = 553;
}
);
unicode = 8224;
},
{
glyphname = daggerdbl;
lastChange = "2024-01-12 08:45:49 +0000";
layers = (
{
layerId = m01;
shapes = (
{
closed = 1;
nodes = (
(130,657,o),
(69,487,o),
(90,487,cs),
(234,488,o),
(379,488,o),
(523,488,cs),
(542,488,o),
(604,658,o),
(583,658,cs),
(439,657,o),
(294,657,o),
(150,657,cs)
);
},
{
closed = 1;
nodes = (
(94,404,o),
(33,234,o),
(54,234,cs),
(198,235,o),
(343,235,o),
(487,235,cs),
(506,235,o),
(568,405,o),
(547,405,cs),
(403,404,o),
(258,404,o),
(114,404,cs)
);
},
{
closed = 1;
nodes = (
(429,796,o),
(286,658,o),
(282,627,cs),
(280,619,o),
(249,135,o),
(249,135,cs),
(246,105,o),
(389,239,o),
(391,271,cs),
(392,278,o),
(423,748,o),
(424,761,cs)
);
}
);
width = 637;
}
);
unicode = 8225;
},
{
glyphname = cent;
lastChange = "2024-01-11 21:33:02 +0000";
layers = (
{
layerId = m01;
shapes = (
{
closed = 1;
nodes = (
(251.715,536.074,o),
(254.903,611.726,o),
(173.302,533.588,cs),
(8,376,o),
(-23,237,o),
(15,152,cs),
(59,56,o),
(193,31,o),
(325.282,131.43,cs),
(388.721,179.739,o),
(459.265,339.338,o),
(384.718,282.57,cs),
(266,192,o),
(194,224,o),
(163,285,cs),
(133,343,o),
(138,427,o),
(172.698,460.412,cs)
);
},
{
closed = 1;
nodes = (
(341.93,408.344,o),
(469.767,535.758,o),
(463.322,555.473,cs),
(446.756,606.144,o),
(363.083,677.522,o),
(259.805,604.472,cs),
(208.995,568.533,o),
(121.15,428.35,o),
(182.195,471.528,cs),
(244.932,515.903,o),
(317.514,483.03,o),
(334.678,430.527,cs)
);
},
{
closed = 1;
nodes = (
(99.265,-85.838,o),
(184.846,-47.885,o),
(206,5,cs),
(238.114,85.286,o),
(347.446,724.258,o),
(347.865,726.656,cs),
(356.515,776.149,o),
(266.299,720.057,o),
(258.135,673.344,cs),
(254.157,650.585,o),
(151.447,44.618,o),
(122,-29,cs)
);
}
);
width = 463;
}
);
unicode = 162;
},
{
glyphname = dollar;
lastChange = "2024-01-12 08:44:11 +0000";
layers = (
{
layerId = m01;
shapes = (
{
closed = 1;
nodes = (
(50,270,o),
(-16,106,o),
(-3,80,cs),
(12,51,o),
(62,-3,o),
(127,-14,cs),
(180,-22,o),
(243,-2,o),
(305,86,cs),
(478,333,o),
(380,352,o),
(275,420,cs),
(116,524,o),
(147,553,o),
(151,558,cs),
(167,581,o),
(304,560,o),
(355,447,cs),
(366,422,o),
(429,592,o),
(419,613,cs),
(398,660,o),
(258,805,o),
(131,626,cs),
(-26,405,o),
(47,358,o),
(151,290,cs),
(311,185,o),
(298,174,o),
(283,152,cs),
(272,136,o),
(228,135,o),
(181,151,cs),
(136,166,o),
(87,197,o),
(63,246,cs)
);
},
{
closed = 1;
nodes = (
(60,-109,o),
(145,-74,o),
(168,-20,cs),
(208,69,o),
(338,786,o),
(339,789,cs),
(348,839,o),
(258,784,o),
(249,737,cs),
(245,711,o),
(122,31,o),
(86,-52,cs)
);
}
);
width = 445;
}
);
metricLeft = s;
metricRight = s;
unicode = 36;
},
{
glyphname = euro;
lastChange = "2024-01-12 08:44:18 +0000";
layers = (
{
layerId = m01;
shapes = (
{
closed = 1;
nodes = (
(424,647,o),
(347,629,o),
(285,543,cs),
(168,380,o),
(138,222,o),
(164,115,cs),
(198,-22,o),
(325,-74,o),
(478,56,cs),
(546,114,o),
(606,266,o),
(528,200,cs),
(428,115,o),
(350,138,o),
(312,209,cs),
(267,291,o),
(273,437,o),
(357,553,cs)
);
},
{
closed = 1;
nodes = (
(491,484,o),
(618,611,o),
(608,628,cs),
(586,664,o),
(536,778,o),
(400,662,cs),
(341,612,o),
(269,483,o),
(338,542,cs),
(406,599,o),
(451,549,o),
(480,502,cs)
);
},
{
closed = 1;
nodes = (
(84,451,o),
(33,371,o),
(78,374,cs),
(136,377,o),
(471,376,o),
(492,376,cs),
(530,377,o),
(582,456,o),
(538,456,cs),
(538,456,o),
(163,455,o),
(122,452,cs)
);
},
{
closed = 1;
nodes = (
(44,312,o),
(-7,232,o),
(38,235,cs),
(96,238,o),
(431,237,o),
(452,237,cs),
(490,238,o),
(542,317,o),
(498,317,cs),
(498,317,o),
(123,316,o),
(82,313,cs)
);
}
);
width = 659;
}
);
metricLeft = e;
metricRight = e;
unicode = 8364;
},
{
glyphname = ruble;
lastChange = "2024-01-12 08:09:35 +0000";
layers = (
{
layerId = m01;
shapes = (
{
closed = 1;
nodes = (
(294,577,o),
(176,517,o),
(144,458,cs),
(95,371,o),
(98,16,o),
(98,11,cs),
(97,-33,o),
(223,59,o),
(224,99,cs),
(224,113,o),
(230,463,o),
(258,514,cs)
);
},
{
closed = 1;
nodes = (
(22,192,o),
(-27,113,o),
(19,117,cs),
(46,119,o),
(270,119,o),
(278,119,cs),
(316,120,o),
(368,199,o),
(324,199,cs),
(324,199,o),
(89,198,o),
(61,195,cs)
);
},
{
closed = 1;
nodes = (
(63,319,o),
(14,240,o),
(60,245,cs),
(78,246,o),
(281,244,o),
(283,244,cs),
(284,244,o),
(300,244,o),
(318,262,cs),
(512,458,o),
(516,629,o),
(447,690,cs),
(376,754,o),
(228,700,o),
(134,437,cs),
(95,329,o),
(168,294,o),
(208,405,cs),
(258,543,o),
(339,590,o),
(381,572,cs),
(427,552,o),
(425,455,o),
(284,312,c),
(296,318,o),
(307,324,o),
(319,330,c),
(309,330,o),
(134,327,o),
(102,323,cs)
);
}
);
width = 488;
}
);
unicode = 8381;
},
{
glyphname = rupeeIndian;
lastChange = "2024-01-12 08:44:25 +0000";
layers = (
{
layerId = m01;
shapes = (
{
closed = 1;
nodes = (
(72,371,o),
(22,287,o),
(105,311,cs),
(162,328,o),
(220,319,o),
(241,263,cs),
(257,220,o),
(251,149,o),
(206,41,cs),
(167,-54,o),
(318,34,o),
(352,117,cs),
(404,242,o),
(412,321,o),
(388,367,cs),
(357,428,o),
(267,427,o),
(147,393,cs)
);
},
{
closed = 1;
nodes = (
(14,305,o),
(92,284,o),
(170,343,cs),
(306,447,o),
(358,534,o),
(361,597,cs),
(366,719,o),
(189,754,o),
(78,661,cs),
(33,623,o),
(61,582,o),
(108,621,cs),
(147,655,o),
(284,620,o),
(225,505,cs),
(206,468,o),
(165,421,o),
(92,365,cs)
);
},
{
closed = 1;
nodes = (
(179,711,o),
(130,631,o),
(176,636,cs),
(200,638,o),
(393,638,o),
(400,638,cs),
(438,639,o),
(490,718,o),
(446,718,cs),
(446,718,o),
(243,717,o),
(218,714,cs)
);
},
{
closed = 1;
nodes = (
(38,543,o),
(-12,464,o),
(33,467,cs),
(78,470,o),
(343,469,o),
(360,469,cs),
(398,470,o),
(450,549,o),
(406,549,cs),
(406,549,o),
(110,548,o),
(77,545,cs)
);
}
);
width = 462;
}
);
metricLeft = p;
metricRight = p;
unicode = 8377;
},
{
glyphname = sterling;
lastChange = "2024-01-12 08:44:34 +0000";
layers = (
{
layerId = m01;
shapes = (
{
closed = 1;
nodes = (
(383,664,o),
(346,688,o),
(295,642,cs),
(174,536,o),
(171,463,o),
(160,352,cs),
(159,338,o),
(157,323,o),
(155,308,cs),
(145,225,o),
(120,141,o),
(110,129,cs),
(71,84,o),
(136,90,o),
(172,131,cs),
(226,193,o),
(227,265,o),
(239,356,cs),
(256,494,o),
(265,560,o),
(333,620,cs)
);
},
{
closed = 1;
nodes = (
(53,393,o),
(3,314,o),
(48,317,cs),
(93,320,o),
(345,319,o),
(362,319,cs),
(400,320,o),
(452,399,o),
(408,399,cs),
(408,399,o),
(125,398,o),
(92,395,cs)
);
},
{
closed = 1;
nodes = (
(116,179,o),
(43,1,o),
(80,-1,cs),
(100,-2,o),
(284,-1,o),
(405,0,cs),
(439,0,o),
(500,170,o),
(461,170,cs),
(344,169,o),
(166,176,o),
(150,177,cs)
);
},
{
closed = 1;
nodes = (
(405,486,o),
(532,613,o),
(522,630,cs),
(510,650,o),
(489,694,o),
(450,709,cs),
(418,722,o),
(375,716,o),
(314,664,cs),
(255,614,o),
(183,485,o),
(252,544,cs),
(320,601,o),
(365,551,o),
(394,504,cs)
);
}
);
width = 493;
}
);
metricLeft = t;
metricRight = t;
unicode = 163;
},
{
glyphname = won;
lastChange = "2024-01-12 08:44:56 +0000";
layers = (
{
layerId = m01;
shapes = (
{
closed = 1;
nodes = (
(408,-17,o),
(528,103,o),
(519,120,cs),
(456,233,o),
(490,660,o),
(436,712,cs),
(423,725,o),
(301,606,o),
(316,592,cs),
(364,546,o),
(332,119,o),
(397,2,cs)
);
},
{
closed = 1;
nodes = (
(760,750,o),
(642,679,o),
(620,626,cs),
(492,315,o),
(442,46,o),
(441,40,cs),
(434,8,o),
(544,124,o),
(551,158,cs),
(554,168,o),
(611,387,o),
(736,690,cs)
);
},
{
closed = 1;
nodes = (
(171,-17,o),
(291,103,o),
(282,120,cs),
(219,233,o),
(251,660,o),
(198,712,cs),
(185,725,o),
(63,606,o),
(78,592,cs),
(125,546,o),
(95,119,o),
(160,2,cs)
);
},
{
closed = 1;
nodes = (
(464,640,o),
(368,612,o),
(360,589,cs),
(294,416,o),
(206,52,o),
(203,39,cs),
(193,4,o),
(301,119,o),
(309,151,cs),
(312,161,o),
(392,453,o),
(454,615,cs)
);
},
{
closed = 1;
nodes = (
(59,442,o),
(8,363,o),
(52,364,cs),
(139,367,o),
(624,367,o),
(655,367,cs),
(693,368,o),
(745,447,o),
(701,447,cs),
(701,447,o),
(157,446,o),
(98,444,cs)
);
}
);
width = 698;
}
);
metricLeft = w;
metricRight = w;
unicode = 8361;
},
{
glyphname = yen;
lastChange = "2024-01-12 08:45:03 +0000";
layers = (
{
layerId = m01;
shapes = (
{
closed = 1;
nodes = (
(632,748,o),
(522,715,o),
(473,631,cs),
(453,596,o),
(174,44,o),
(174,43,cs),
(131,-41,o),
(252,12,o),
(290,89,cs),
(303,113,o),
(560,624,o),
(583,663,cs)
);
},
{
closed = 1;
nodes = (
(324,347,o),
(441,476,o),
(397,458,cs),
(370,448,o),
(346,477,o),
(322,519,cs),
(276,600,o),
(232,730,o),
(175,713,cs),
(143,704,o),
(20,574,o),
(59,585,cs),
(102,597,o),
(138,492,o),
(181,412,cs),
(211,358,o),
(244,315,o),
(285,332,cs)
);
},
{
closed = 1;
nodes = (
(84,451,o),
(33,371,o),
(78,374,cs),
(136,377,o),
(471,376,o),
(492,376,cs),
(530,377,o),
(582,456,o),
(538,456,cs),
(538,456,o),
(163,455,o),
(122,452,cs)
);
},
{
closed = 1;
nodes = (
(44,312,o),
(-7,232,o),
(38,235,cs),
(96,238,o),
(431,237,o),
(452,237,cs),
(490,238,o),
(542,317,o),
(498,317,cs),
(498,317,o),
(123,316,o),
(82,313,cs)
);
}
);
width = 544;
}
);
metricLeft = y;
metricRight = y;
unicode = 165;
},
{
glyphname = plus;
lastChange = "2024-01-12 08:09:35 +0000";
layers = (
{
layerId = m01;
shapes = (
{
closed = 1;
nodes = (
(44,356,o),
(-17,186,o),
(4,186,cs),
(148,187,o),
(293,187,o),
(437,187,cs),
(456,187,o),
(518,357,o),
(497,357,cs),
(353,356,o),
(208,356,o),
(64,356,cs)
);
},
{
closed = 1;
nodes = (
(343,574,o),
(200,438,o),
(193,403,cs),
(191,396,o),
(166,6,o),
(166,5,cs),
(163,-25,o),
(306,109,o),
(308,141,cs),
(309,147,o),
(333,527,o),
(335,537,cs)
);
}
);
width = 501;
}
);
unicode = 43;
},
{
glyphname = minus;
lastChange = "2024-01-12 08:09:35 +0000";
layers = (
{
layerId = m01;
shapes = (
{
closed = 1;
nodes = (
(44,353,o),
(-17,183,o),
(4,183,cs),
(148,184,o),
(293,184,o),
(437,184,cs),
(456,184,o),
(518,354,o),
(497,354,cs),
(353,353,o),
(208,353,o),
(64,353,cs)
);
}
);
width = 501;
}
);
unicode = 8722;
},
{
glyphname = multiply;
lastChange = "2024-01-12 08:09:35 +0000";
layers = (
{
layerId = m01;
shapes = (
{
closed = 1;
nodes = (
(523,520,o),
(461,551,o),
(388,470,cs),
(356,435,o),
(42,40,o),
(41,38,cs),
(-28,-47,o),
(47,-64,o),
(117,24,cs),
(127,36,o),
(433,419,o),
(446,434,cs)
);
},
{
closed = 1;
nodes = (
(377,-59,o),
(519,34,o),
(494,66,cs),
(428,150,o),
(362,234,o),
(296,317,cs),
(246,382,o),
(195,446,o),
(145,510,cs),
(121,540,o),
(-23,449,o),
(3,416,cs),
(66,336,o),
(128,257,o),
(191,177,cs),
(245,109,o),
(299,40,o),
(352,-28,cs)
);
}
);
width = 497;
}
);
unicode = 215;
},
{
glyphname = divide;
lastChange = "2024-01-12 08:09:35 +0000";
layers = (
{
layerId = m01;
shapes = (
{
closed = 1;
nodes = (
(44,353,o),
(-17,183,o),
(4,183,cs),
(148,184,o),
(293,184,o),
(437,184,cs),
(456,184,o),
(518,354,o),
(497,354,cs),
(353,353,o),
(208,353,o),
(64,353,cs)
);
}
);
width = 501;
}
);
unicode = 247;
},
{
glyphname = equal;
lastChange = "2024-01-12 08:35:26 +0000";
layers = (
{
layerId = m01;
shapes = (
{
closed = 1;
nodes = (
(130,462,o),
(69,292,o),
(90,292,cs),
(234,293,o),
(379,293,o),
(523,293,cs),
(542,293,o),
(604,463,o),
(583,463,cs),
(439,462,o),
(294,462,o),
(150,462,cs)
);
},
{
closed = 1;
nodes = (
(94,209,o),
(33,39,o),
(54,39,cs),
(198,40,o),
(343,40,o),
(487,40,cs),
(506,40,o),
(568,210,o),
(547,210,cs),
(403,209,o),
(258,209,o),
(114,209,cs)
);
}
);
width = 637;
}
);
unicode = 61;
},
{
glyphname = notequal;
lastChange = "2024-01-12 08:09:35 +0000";
layers = (
{
layerId = m01;
shapes = (
{
pos = (0,13);
ref = equal;
},
{
closed = 1;
nodes = (
(532.086,587.36,o),
(445.716,588.763,o),
(381.72,499.169,cs),
(351.87,457.378,o),
(92.427,19.533,o),
(90.039,15.53,cs),
(37.964,-71.775,o),
(143.123,-44.76,o),
(193.961,40.47,cs),
(203.911,57.152,o),
(458.804,484.764,o),
(470.28,500.831,cs)
);
}
);
width = 537;
}
);
unicode = 8800;
},
{
glyphname = greater;
lastChange = "2024-01-12 08:33:29 +0000";
layers = (
{
layerId = m01;
shapes = (
{
closed = 1;
nodes = (
(46,23,o),
(93,-20,o),
(177,40,cs),
(271,107,o),
(365,174,o),
(459,241,cs),
(541,299,o),
(497,345,o),
(411,283,cs),
(317,216,o),
(223,149,o),
(129,82,cs)
);
},
{
closed = 1;
nodes = (
(394,190,o),
(535,285,o),
(498,311,cs),
(404,378,o),
(310,445,o),
(216,511,cs),
(185,534,o),
(43,439,o),
(80,413,cs),
(174,346,o),
(268,279,o),
(362,213,cs)
);
}
);
width = 579;
}
);
unicode = 62;
},
{
glyphname = less;
lastChange = "2024-01-12 08:32:48 +0000";
layers = (
{
layerId = m01;
shapes = (
{
closed = 1;
nodes = (
(533,500,o),
(489,545,o),
(403,484,cs),
(309,417,o),
(215,350,o),
(120,283,cs),
(37,224,o),
(83,181,o),
(168,241,cs),
(262,308,o),
(356,375,o),
(451,442,cs)
);
},
{
closed = 1;
nodes = (
(185,334,o),
(43,239,o),
(81,213,cs),
(175,146,o),
(269,79,o),
(364,13,cs),
(396,-10,o),
(537,85,o),
(500,111,cs),
(406,178,o),
(312,245,o),
(217,311,cs)
);
}
);
width = 580;
}
);
unicode = 60;
},
{
glyphname = greaterequal;
lastChange = "2024-01-12 08:40:48 +0000";
layers = (
{
layerId = m01;
shapes = (
{
closed = 1;
nodes = (
(126,236,o),
(113,161,o),
(209,201,cs),
(288,234,o),
(367,268,o),
(446,301,cs),
(535,338,o),
(548,413,o),
(452,373,cs),
(373,340,o),
(294,306,o),
(215,273,cs)
);
},
{
closed = 1;
nodes = (
(470,288,o),
(584,415,o),
(544,433,cs),
(456,474,o),
(368,514,o),
(280,555,cs),
(243,572,o),
(88,466,o),
(134,445,cs),
(234,398,o),
(334,352,o),
(434,305,cs)
);
},
{
closed = 1;
nodes = (
(113,134,o),
(58,-20,o),
(79,-20,cs),
(203,-20,o),
(328,-20,o),
(452,-19,cs),
(472,-19,o),
(528,135,o),
(506,135,cs),
(382,135,o),
(257,135,o),
(133,134,cs)
);
}
);
width = 627;
}
);
unicode = 8805;
},
{
glyphname = lessequal;
lastChange = "2024-01-12 08:41:35 +0000";
layers = (
{
layerId = m01;
shapes = (
{
closed = 1;
nodes = (
(113,119,o),
(58,-35,o),
(79,-35,cs),
(203,-35,o),
(328,-35,o),
(452,-34,cs),
(472,-34,o),
(528,120,o),
(506,120,cs),
(382,120,o),
(257,120,o),
(133,119,cs)
);
},
{
closed = 1;
nodes = (
(561,502,o),
(582,584,o),
(490,541,cs),
(396,498,o),
(301,454,o),
(207,410,cs),
(122,371,o),
(101,289,o),
(193,332,cs),
(287,375,o),
(382,419,o),
(476,463,cs)
);
},
{
closed = 1;
nodes = (
(238,443,o),
(90,337,o),
(135,316,cs),
(229,272,o),
(323,229,o),
(418,185,cs),
(457,167,o),
(603,274,o),
(558,295,cs),
(464,339,o),
(370,382,o),
(275,426,cs)
);
}
);
width = 642;
}
);
unicode = 8804;
},
{
glyphname = plusminus;
lastChange = "2024-01-12 08:41:41 +0000";
layers = (
{
layerId = m01;
shapes = (
{
closed = 1;
nodes = (
(89,119,o),
(34,-35,o),
(55,-35,cs),
(179,-35,o),
(304,-35,o),
(428,-34,cs),
(448,-34,o),
(504,120,o),
(482,120,cs),
(358,120,o),
(233,120,o),
(109,119,cs)
);
},
{
closed = 1;
nodes = (
(96,454,o),
(35,284,o),
(56,284,cs),
(200,285,o),
(345,285,o),
(489,285,cs),
(508,285,o),
(570,455,o),
(549,455,cs),
(405,454,o),
(260,454,o),
(116,454,cs)
);
},
{
closed = 1;
nodes = (
(392,618,o),
(249,482,o),
(242,447,cs),
(240,440,o),
(221,158,o),
(221,157,cs),
(218,127,o),
(361,261,o),
(363,293,cs),
(364,297,o),
(383,573,o),
(384,581,cs)
);
}
);
width = 603;
}
);
unicode = 177;
},
{
glyphname = logicalnot;
lastChange = "2024-01-12 08:41:51 +0000";
layers = (
{
layerId = m01;
shapes = (
{
closed = 1;
nodes = (
(94,423,o),
(33,253,o),
(54,253,cs),
(197,254,o),
(341,254,o),
(484,254,cs),
(503,254,o),
(565,424,o),
(544,424,cs),
(401,423,o),
(257,423,o),
(114,423,cs)
);
},
{
closed = 1;
nodes = (
(557,443,o),
(414,308,o),
(405,272,cs),
(403,265,o),
(387,9,o),
(387,8,cs),
(385,-22,o),
(527,112,o),
(529,144,cs),
(530,148,o),
(546,398,o),
(547,404,cs)
);
}
);
width = 598;
}
);
unicode = 172;
},
{
glyphname = summation;
lastChange = "2024-01-12 08:41:51 +0000";
layers = (
{
layerId = m01;
shapes = (
{
closed = 1;
nodes = (
(84,163,o),
(25,-7,o),
(62,-7,cs),
(87,-7,o),
(356,-9,o),
(385,-9,cs),
(405,-9,o),
(466,161,o),
(445,161,cs),
(416,161,o),
(145,163,o),
(118,163,cs)
);
},
{
closed = 1;
nodes = (
(465,549,o),
(526,719,o),
(505,719,cs),
(482,719,o),
(197,715,o),
(191,718,cs),
(173,730,o),
(124,559,o),
(127,552,cs),
(130,544,o),
(235,309,o),
(251,278,cs),
(261,258,o),
(345,374,o),
(335,394,cs),
(318,428,o),
(198,703,o),
(193,716,c),
(172,661,o),
(150,605,o),
(129,550,c),
(139,543,o),
(422,549,o),
(445,549,cs)
);
},
{
closed = 1;
nodes = (
(366,423,o),
(268,415,o),
(228,357,cs),
(207,327,o),
(77,121,o),
(64,81,cs),
(47,27,o),
(159,64,o),
(176,117,cs),
(179,128,o),
(309,340,o),
(326,365,cs)
);
}
);
width = 559;
}
);
unicode = 8721;
},
{
glyphname = radical;
lastChange = "2024-01-12 08:09:35 +0000";
layers = (
{
layerId = m01;
shapes = (
{
closed = 1;
nodes = (
(53,395,o),
(-18,235,o),
(4,196,cs),
(13,181,o),
(165,-75,o),
(181,-83,cs),
(199,-92,o),
(261,77,o),
(243,85,cs),
(235,89,o),
(81,347,o),
(76,356,cs)
);
},
{
closed = 1;
nodes = (
(614,540,o),
(675,710,o),
(654,710,cs),
(637,710,o),
(422,706,o),
(418,709,cs),
(403,722,o),
(339,555,o),
(356,541,cs),
(364,534,o),
(577,540,o),
(594,540,cs)
);
},
{
closed = 1;
nodes = (
(492,649,o),
(385,625,o),
(357,570,cs),
(346,549,o),
(182,-32,o),
(174,-59,cs),
(158,-114,o),
(272,-70,o),
(286,-21,cs),
(297,15,o),
(459,583,o),
(463,592,cs)
);
}
);
width = 658;
}
);
unicode = 8730;
},
{
glyphname = percent;
lastChange = "2024-01-12 08:42:07 +0000";
layers = (
{
layerId = m01;
shapes = (
{
closed = 1;
nodes = (
(639,742,o),
(557,750,o),
(491,664,cs),
(447,607,o),
(116,48,o),
(112,42,cs),
(60,-46,o),
(165,-19,o),
(216,66,cs),
(229,88,o),
(556,634,o),
(571,654,cs)
);
},
{
closed = 1;
nodes = (
(260,708,o),
(199,715,o),
(130,628,cs),
(29,502,o),
(36,410,o),
(81,370,cs),
(112,342,o),
(159,339,o),
(203,364,cs),
(253,393,o),
(328,544,o),
(269,510,cs),
(222,483,o),
(197,500,o),
(186,527,cs),
(173,559,o),
(177,604,o),
(186,616,cs)
);
},
{
closed = 1;
nodes = (
(186,433,o),
(178,336,o),
(247,412,cs),
(390,568,o),
(401,662,o),
(365,705,cs),
(332,745,o),
(261,743,o),
(214,709,cs),
(154,667,o),
(79,538,o),
(150,589,cs),
(197,622,o),
(223,606,o),
(236,579,cs),
(251,549,o),
(251,504,o),
(249,502,cs)
);
},
{
closed = 1;
nodes = (
(546,357,o),
(485,364,o),
(416,277,cs),
(325,163,o),
(322,77,o),
(355,32,cs),
(384,-7,o),
(439,-16,o),
(489,13,cs),
(539,42,o),
(614,193,o),
(555,159,cs),
(511,134,o),
(486,147,o),
(474,172,cs),
(458,203,o),
(462,253,o),
(472,265,cs)
);
},
{
closed = 1;
nodes = (
(472,82,o),
(464,-15,o),
(533,61,cs),
(671,212,o),
(686,305,o),
(654,350,cs),
(623,394,o),
(549,393,o),
(500,358,cs),
(440,316,o),
(365,187,o),
(436,238,cs),
(482,270,o),
(507,256,o),
(521,231,cs),
(537,200,o),
(537,153,o),
(535,151,cs)
);
}
);
width = 678;
}
);
unicode = 37;
},
{
glyphname = perthousand;
lastChange = "2024-01-12 08:09:35 +0000";
layers = (
{
layerId = m01;
shapes = (
{
closed = 1;
nodes = (
(589,742,o),
(507,750,o),
(441,664,cs),
(397,607,o),
(66,48,o),
(62,42,cs),
(10,-46,o),
(115,-19,o),
(166,66,cs),
(179,88,o),
(506,634,o),
(521,654,cs)
);
},
{
closed = 1;
nodes = (
(210,708,o),
(149,715,o),
(80,628,cs),
(-13,512,o),
(-14,424,o),
(21,380,cs),
(50,344,o),
(104,336,o),
(153,364,cs),
(203,393,o),
(278,544,o),
(219,510,cs),
(171,483,o),
(146,500,o),
(135,529,cs),
(123,560,o),
(127,604,o),
(136,616,cs)
);
},
{
closed = 1;
nodes = (
(136,433,o),
(128,336,o),
(197,412,cs),
(336,564,o),
(350,657,o),
(318,702,cs),
(287,745,o),
(213,744,o),
(164,709,cs),
(104,667,o),
(29,538,o),
(100,589,cs),
(149,623,o),
(175,605,o),
(188,576,cs),
(201,546,o),
(201,504,o),
(199,502,cs)
);
},
{
closed = 1;
nodes = (
(496,357,o),
(435,364,o),
(366,277,cs),
(271,157,o),
(272,68,o),
(310,25,cs),
(340,-8,o),
(392,-14,o),
(439,13,cs),
(489,42,o),
(564,193,o),
(505,159,cs),
(460,133,o),
(436,147,o),
(423,173,cs),
(408,204,o),
(412,253,o),
(422,265,cs)
);
},
{
closed = 1;
nodes = (
(422,82,o),
(414,-15,o),
(483,61,cs),
(636,229,o),
(638,324,o),
(592,363,cs),
(557,393,o),
(494,389,o),
(450,358,cs),
(390,316,o),
(315,187,o),
(386,238,cs),
(431,269,o),
(456,257,o),
(470,233,cs),
(487,203,o),
(487,154,o),
(485,151,cs)
);
},
{
closed = 1;
nodes = (
(825,357,o),
(764,364,o),
(695,277,cs),
(602,160,o),
(601,73,o),
(637,28,cs),
(666,-7,o),
(720,-15,o),
(768,13,cs),
(818,42,o),
(893,193,o),
(834,159,cs),
(781,129,o),
(756,154,o),
(747,187,cs),
(739,218,o),
(743,255,o),
(751,265,cs)
);
},
{
closed = 1;
nodes = (
(751,82,o),
(743,-15,o),
(812,61,cs),
(969,232,o),
(967,329,o),
(918,366,cs),
(882,393,o),
(821,388,o),
(779,358,cs),
(719,316,o),
(644,187,o),
(715,238,cs),
(766,274,o),
(792,252,o),
(804,221,cs),
(816,191,o),
(816,153,o),
(814,151,cs)
);
}
